<?xml version="1.0" encoding="UTF-8" standalone="no"?>
<!-- Created with Inkscape (http://www.inkscape.org/) -->

<svg
   xmlns:dc="http://purl.org/dc/elements/1.1/"
   xmlns:cc="http://creativecommons.org/ns#"
   xmlns:rdf="http://www.w3.org/1999/02/22-rdf-syntax-ns#"
   xmlns:svg="http://www.w3.org/2000/svg"
   xmlns="http://www.w3.org/2000/svg"
   xmlns:sodipodi="http://sodipodi.sourceforge.net/DTD/sodipodi-0.dtd"
   xmlns:inkscape="http://www.inkscape.org/namespaces/inkscape"
   version="1.1"
   id="svg2"
   xml:space="preserve"
   width="453.73065"
   height="453.73065"
   viewBox="0 0 453.73065 453.73066"
   sodipodi:docname="logo_square_white.svg"
   inkscape:version="0.92.4 5da689c313, 2019-01-14"><metadata
     id="metadata8"><rdf:RDF><cc:Work
         rdf:about=""><dc:format>image/svg+xml</dc:format><dc:type
           rdf:resource="http://purl.org/dc/dcmitype/StillImage" /><dc:title></dc:title></cc:Work></rdf:RDF></metadata><defs
     id="defs6" /><sodipodi:namedview
     pagecolor="#ffffff"
     bordercolor="#666666"
     borderopacity="1"
     objecttolerance="10"
     gridtolerance="10"
     guidetolerance="10"
     inkscape:pageopacity="0"
     inkscape:pageshadow="2"
     inkscape:window-width="1900"
     inkscape:window-height="1154"
     id="namedview4"
     showgrid="false"
     inkscape:zoom="1.6254273"
     inkscape:cx="124.85073"
     inkscape:cy="163.83393"
     inkscape:window-x="8"
     inkscape:window-y="36"
     inkscape:window-maximized="0"
     inkscape:current-layer="g12"
     fit-margin-top="0"
     fit-margin-left="0"
     fit-margin-right="0"
     fit-margin-bottom="0" /><g
     id="g10"
     inkscape:groupmode="layer"
     inkscape:label="ink_ext_XXXXXX"
     transform="matrix(1.3333333,0,0,-1.3333333,938.12991,568.52302)"><g
       id="g12"
       transform="matrix(0.1,0,0,0.1,96.897599,-51.678719)"><path
         d="m -5242.7966,2552.5243 h 167.873 V 2126.9309 H -5822.19 l -403.1221,347.8517 -49.435,-57.2187 424.4206,-366.2941 h 851.064 v 501.2545 h 153.6865 v 75.6611 h -397.2206 z m -817.6406,667.8034 -175.5904,183.3834 175.5904,183.4781 c 39.6653,-50.6929 63.3945,-114.3428 63.3945,-183.4781 0,-69.1352 -23.7292,-132.7851 -63.3945,-183.3834 z m -234.5209,-114.5319 c -64.4916,0 -124.2165,20.7122 -173.0368,55.7054 l 173.0368,180.7353 173.0463,-180.7353 c -48.8203,-34.9932 -108.5452,-55.7054 -173.0463,-55.7054 z m -297.9154,297.9153 c 0,69.1353 23.7387,132.7852 63.404,183.4781 l 175.5904,-183.4781 -175.5904,-183.3834 c -39.6653,50.5983 -63.404,114.2482 -63.404,183.3834 z m 297.9154,297.9154 c 64.5011,0 124.226,-20.6176 173.0463,-55.6108 l -173.0463,-180.7354 -173.0368,180.7354 c 48.8203,34.9932 108.5452,55.6108 173.0368,55.6108 z m 1295.6956,-860.6444 v 572.1867 h -912.8979 c -5.0504,206.8384 -174.7582,373.5764 -382.7977,373.5764 -208.0301,0 -377.7378,-166.738 -382.7882,-373.5764 h -600.8055 v -1361.899 h 955.2208 v 75.6611 h -879.5597 v 1210.5768 h 530.7528 c 31.4655,-179.695 188.5663,-316.8306 377.1798,-316.8306 188.623,0 345.7237,137.1356 377.1893,316.8306 h 842.8452 v -496.5256 h -319.1951 v -75.6611 h 699.8648 v 75.6611 z m -2913.4046,-259.9903 73.4764,-0.095 6.1947,72.6346 140.8904,-0.2837 -0.7661,-498.7009 -70.9039,-12.1058 -0.085,-54.7597 227.4088,-0.3783 0.085,54.8543 -70.8471,12.2003 0.766,498.7955 140.4459,-0.1892 6.4122,-72.6346 73.0508,-0.1891 0.227,140.0675 -526.1375,0.7566 z m 373.4819,251.7621 -70.8471,12.2949 0.7661,498.701 70.8944,12.1057 0.095,55.138 -227.4087,0.3783 -0.095,-55.2325 70.8471,-12.295 -0.766,-498.7009 -70.8945,-12.1057 -0.085,-54.7597 227.4088,-0.3783 z m 2146.8446,954.1805 c 0.1229,73.3912 16.948,133.3526 50.5037,179.9787 33.5557,46.6261 80.1724,69.8919 139.8973,69.7973 62.3258,-0.095 111.061,-23.4549 146.215,-70.081 35.154,-46.5316 52.6695,-106.6821 52.5466,-180.2625 l -0.01,-10.0251 c -0.1135,-74.5261 -17.6101,-134.8658 -52.4614,-181.2082 -34.8609,-46.3424 -83.8892,-69.419 -147.0757,-69.3244 -59.7249,0.095 -106.2848,23.3603 -139.6987,69.9864 -33.4043,46.5316 -50.0497,106.9659 -49.9268,181.2083 z m -85.6767,-9.836 c -0.1419,-92.2119 25.2424,-168.7241 76.1717,-229.7258 50.9294,-60.9072 117.2558,-91.4553 199.0075,-91.6445 84.0689,-0.095 152.5989,30.2644 205.59,91.077 53.0006,60.718 79.5671,137.2303 79.7184,229.4422 l 0.01,9.0793 c 0.1513,91.9282 -26.1977,168.535 -78.9996,229.7259 -52.8115,61.2854 -121.2469,91.9281 -205.3158,92.1173 -81.7423,0.095 -148.1727,-30.359 -199.2817,-91.4553 -51.1185,-61.0963 -76.7392,-137.6085 -76.8906,-229.4421 z m -444.3574,254.5995 140.8809,-0.1892 -0.7661,-498.7009 -70.8944,-12.1057 -0.085,-54.7597 227.3993,-0.3783 0.095,54.7596 -70.8471,12.295 0.766,498.7955 140.4459,-0.2838 6.4028,-72.6346 73.0602,-0.095 0.2175,140.0676 -526.1281,0.7566 -0.2269,-139.973 73.4858,-0.094 z m -1198.6602,1.6078 121.313,-0.1892 c 43.7699,0 76.0867,-9.8359 96.9218,-29.224 20.8446,-19.4828 31.2386,-45.8696 31.1818,-79.1604 -0.057,-35.0878 -10.9614,-61.7584 -32.7234,-80.0116 -21.7714,-18.2532 -56.585,-27.3325 -104.4028,-27.238 l -112.6214,0.1892 z m -86.4333,-498.6064 -70.885,-12.0111 -0.095,-54.7597 227.4087,-0.3783 0.095,54.7597 -70.8566,12.2949 0.331,215.634 137.4005,-0.1892 c 33.6313,0 60.4248,-10.498 80.3899,-31.3993 19.965,-20.9014 29.9239,-48.6122 29.8766,-83.1326 l -0.076,-49.0851 c -0.047,-33.1017 6.9324,-61.1909 20.9486,-84.4567 14.0257,-23.1712 37.7076,-34.804 71.0457,-34.8986 h 46.0871 l 0.095,56.0837 -20.873,2.6482 c -11.3019,1.7023 -19.4166,7.2824 -24.3156,16.5508 -4.9274,9.2685 -7.358,23.6441 -7.3297,43.0323 l 0.085,50.882 c 0.057,37.3577 -7.5093,68.8516 -22.6888,94.3872 -15.1795,25.5356 -40.0058,43.978 -74.4789,55.3271 31.9006,13.619 56.4148,32.2505 73.5615,55.9892 17.1372,23.7387 25.7437,50.9766 25.7815,81.7139 0.085,56.2729 -18.2532,99.6835 -55.015,130.3262 -36.7713,30.6427 -89.6584,45.9641 -158.6424,46.0587 l -206.9802,0.3783 -70.8661,0.095 -0.085,-54.7597 70.8471,-12.295 z m -171.0224,288.8361 c -21.3364,-22.982 -53.464,-34.4258 -96.3638,-34.4258 l -134.3551,0.2838 0.3783,244.7635 134.3551,-0.1892 c 42.8998,-0.095 74.9896,-11.9166 96.2503,-35.3715 21.2703,-23.5495 31.8817,-52.8682 31.8439,-87.8614 -0.057,-35.0878 -10.7628,-64.1228 -32.1087,-87.1994 z m 61.6732,225.3754 c -37.49,34.8986 -90.0082,52.3007 -157.5546,52.3953 l -220.0129,0.3783 -70.8661,0.095 -0.095,-55.2325 70.8471,-12.2949 -0.7661,-498.701 -70.8849,-12.1057 -0.095,-54.7597 227.4087,-0.3783 0.095,54.8542 -70.8566,12.295 0.2838,186.9773 134.3551,-0.2837 c 67.5369,-0.095 120.1119,17.1183 157.7154,51.5441 37.5752,34.4258 56.4148,80.2953 56.5094,137.7031 0.085,56.8404 -18.6126,102.7099 -56.0838,137.514"
         style="fill:#ffffff;fill-opacity:1;fill-rule:nonzero;stroke:none;stroke-width:0.94576317"
         id="path214"
         inkscape:connector-curvature="0" /></g></g></svg>