<?xml version="1.0" encoding="UTF-8" standalone="no"?>
<!-- Created with Inkscape (http://www.inkscape.org/) -->

<svg
   xmlns:dc="http://purl.org/dc/elements/1.1/"
   xmlns:cc="http://creativecommons.org/ns#"
   xmlns:rdf="http://www.w3.org/1999/02/22-rdf-syntax-ns#"
   xmlns:svg="http://www.w3.org/2000/svg"
   xmlns="http://www.w3.org/2000/svg"
   xmlns:sodipodi="http://sodipodi.sourceforge.net/DTD/sodipodi-0.dtd"
   xmlns:inkscape="http://www.inkscape.org/namespaces/inkscape"
   version="1.1"
   id="svg1591"
   xml:space="preserve"
   width="400"
   height="400"
   viewBox="0 0 400 400.00001"
   sodipodi:docname="logo_small_green_bevel.svg"
   inkscape:version="0.92.4 5da689c313, 2019-01-14"><metadata
     id="metadata1597"><rdf:RDF><cc:Work
         rdf:about=""><dc:format>image/svg+xml</dc:format><dc:type
           rdf:resource="http://purl.org/dc/dcmitype/StillImage" /><dc:title></dc:title></cc:Work></rdf:RDF></metadata><defs
     id="defs1595" /><sodipodi:namedview
     pagecolor="#ffffff"
     bordercolor="#666666"
     borderopacity="1"
     objecttolerance="10"
     gridtolerance="10"
     guidetolerance="10"
     inkscape:pageopacity="0"
     inkscape:pageshadow="2"
     inkscape:window-width="1900"
     inkscape:window-height="1154"
     id="namedview1593"
     showgrid="false"
     inkscape:zoom="0.40635683"
     inkscape:cx="-347.62813"
     inkscape:cy="174.56133"
     inkscape:window-x="8"
     inkscape:window-y="36"
     inkscape:window-maximized="0"
     inkscape:current-layer="g1601"
     fit-margin-top="0"
     fit-margin-left="0"
     fit-margin-right="0"
     fit-margin-bottom="0" /><g
     id="g1599"
     inkscape:groupmode="layer"
     inkscape:label="ink_ext_XXXXXX"
     transform="matrix(1.3333333,0,0,-1.3333333,-598.59881,1842.6666)"><g
       id="g1601"
       transform="scale(0.1)"><rect
         style="fill:#274b22;fill-opacity:1;stroke:none;stroke-width:75.54331207;stroke-linejoin:round;stroke-miterlimit:4;stroke-dasharray:none;stroke-opacity:1"
         id="rect3643"
         width="3000"
         height="3000"
         x="4489.4912"
         y="-13820"
         transform="scale(1,-1)"
         ry="391.52542" /><path
         d="m 6170.1307,12420.226 -308.9915,319.384 c 88.3327,65.47 194.7939,101.149 306.7976,101.842 0.9237,0 1.8475,0 2.7712,0 113.7356,0 219.0422,-36.719 304.8346,-98.84 z m 521.9138,-97.454 c 0.6928,-122.858 -41.5683,-236.016 -112.4655,-325.619 l -312.9174,323.425 309.4534,326.773 c 71.9363,-88.91 115.3522,-201.722 115.9295,-324.579 z m -518.5653,-524.108 c -114.8903,-0.809 -221.236,36.026 -307.8368,98.609 l 305.6429,322.617 308.7606,-319.153 c -85.7925,-63.507 -191.7918,-101.496 -306.5667,-102.073 z m -524.1077,518.565 c -0.6928,119.74 38.9126,233.476 112.2345,325.965 l 313.1484,-323.656 -309.5689,-326.889 c -71.8209,88.911 -115.2367,201.722 -115.814,324.58 z m 1442.1912,302.41 v 612.556 H 5047.7849 v -623.526 h -294.4426 v -138.561 h 692.8061 v 138.561 h -259.8023 v 484.964 h 907.114 v -118.239 c -148.2605,-17.204 -285.3206,-83.598 -391.8973,-191.214 -124.0122,-125.282 -191.6763,-291.44 -190.7525,-467.644 0.9237,-176.319 70.4352,-341.669 195.7177,-465.681 111.5417,-110.271 255.4144,-175.973 410.0257,-188.443 v -116.045 h -930.2076 v 669.712 h 144.3346 v 138.562 H 4868.81 v -138.562 h 178.9749 v -808.273 h 2043.7778 v 599.854 h -138.5612 v -461.293 h -697.8866 v 119.278 c 325.6188,41.799 577.3383,321.462 575.4908,657.935 -1.732,342.015 -264.8828,622.601 -598.5844,653.431 v 116.622 h 720.9802 v -473.994 h 138.5612"
         style="fill:#ffffff;fill-opacity:1;fill-rule:nonzero;stroke:none;stroke-width:1.15467668"
         id="path1637"
         inkscape:connector-curvature="0" /></g></g></svg>