<?xml version="1.0" encoding="UTF-8" standalone="no"?>
<!-- Created with Inkscape (http://www.inkscape.org/) -->

<svg
   xmlns:dc="http://purl.org/dc/elements/1.1/"
   xmlns:cc="http://creativecommons.org/ns#"
   xmlns:rdf="http://www.w3.org/1999/02/22-rdf-syntax-ns#"
   xmlns:svg="http://www.w3.org/2000/svg"
   xmlns="http://www.w3.org/2000/svg"
   xmlns:sodipodi="http://sodipodi.sourceforge.net/DTD/sodipodi-0.dtd"
   xmlns:inkscape="http://www.inkscape.org/namespaces/inkscape"
   version="1.1"
   id="svg1591"
   xml:space="preserve"
   width="270"
   height="210.66666"
   viewBox="0 0 270 210.66666"
   sodipodi:docname="logo_small_black.svg"
   inkscape:version="0.92.4 5da689c313, 2019-01-14"><metadata
     id="metadata1597"><rdf:RDF><cc:Work
         rdf:about=""><dc:format>image/svg+xml</dc:format><dc:type
           rdf:resource="http://purl.org/dc/dcmitype/StillImage" /><dc:title></dc:title></cc:Work></rdf:RDF></metadata><defs
     id="defs1595" /><sodipodi:namedview
     pagecolor="#ffffff"
     bordercolor="#666666"
     borderopacity="1"
     objecttolerance="10"
     gridtolerance="10"
     guidetolerance="10"
     inkscape:pageopacity="0"
     inkscape:pageshadow="2"
     inkscape:window-width="1900"
     inkscape:window-height="1154"
     id="namedview1593"
     showgrid="false"
     inkscape:zoom="0.74162942"
     inkscape:cx="218.88217"
     inkscape:cy="-247.64806"
     inkscape:window-x="8"
     inkscape:window-y="36"
     inkscape:window-maximized="0"
     inkscape:current-layer="g1601"
     fit-margin-top="0"
     fit-margin-left="0"
     fit-margin-right="0"
     fit-margin-bottom="0" /><g
     id="g1599"
     inkscape:groupmode="layer"
     inkscape:label="ink_ext_XXXXXX"
     transform="matrix(1.3333333,0,0,-1.3333333,856.0627,532.02753)"><g
       id="g1601"
       transform="scale(0.1)"><path
         d="m -5193.4704,3287.0066 -267.6,276.6 c 76.5,56.7 168.7,87.6 265.7,88.2 0.8,0 1.6,0 2.4,0 98.5,0 189.7,-31.8 264,-85.6 z m 452,-84.4 c 0.6,-106.4 -36,-204.4 -97.4,-282 l -271,280.1 268,283 c 62.3,-77 99.9,-174.7 100.4,-281.1 z m -449.1,-453.9 c -99.5,-0.7 -191.6,31.2 -266.6,85.4 l 264.7,279.4 267.4,-276.4 c -74.3,-55 -166.1,-87.9 -265.5,-88.4 z m -453.9,449.1 c -0.6,103.7 33.7,202.2 97.2,282.3 l 271.2,-280.3 -268.1,-283.1 c -62.2,77 -99.8,174.7 -100.3,281.1 z m 1249,261.9 v 530.5 h -1770 v -540 h -255 v -120 h 600 v 120 h -225 v 420 h 785.6 v -102.4 c -128.4,-14.9 -247.1,-72.4 -339.4,-165.6 -107.4,-108.5 -166,-252.4 -165.2,-405 0.8,-152.7 61,-295.9 169.5,-403.3 96.6,-95.5 221.2,-152.4 355.1,-163.2 v -100.5 h -805.6 v 580 h 125 v 120 h -400 v -120 h 155 v -700 h 1770 v 519.5 h -120 v -399.5 h -604.4 v 103.3 c 282,36.2 500,278.4 498.4,569.8 -1.5,296.2 -229.4,539.2 -518.4,565.9 v 101 h 624.4 v -410.5 h 120"
         style="fill:#000000;fill-opacity:1;fill-rule:nonzero;stroke:none"
         id="path1637"
         inkscape:connector-curvature="0" /></g></g></svg>