<?xml version="1.0" encoding="UTF-8" standalone="no"?>
<!-- Created with Inkscape (http://www.inkscape.org/) -->

<svg
   xmlns:dc="http://purl.org/dc/elements/1.1/"
   xmlns:cc="http://creativecommons.org/ns#"
   xmlns:rdf="http://www.w3.org/1999/02/22-rdf-syntax-ns#"
   xmlns:svg="http://www.w3.org/2000/svg"
   xmlns="http://www.w3.org/2000/svg"
   xmlns:sodipodi="http://sodipodi.sourceforge.net/DTD/sodipodi-0.dtd"
   xmlns:inkscape="http://www.inkscape.org/namespaces/inkscape"
   version="1.1"
   id="svg1591"
   xml:space="preserve"
   width="453.73065"
   height="289.84003"
   viewBox="0 0 453.73065 289.84003"
   sodipodi:docname="logo_black.svg"
   inkscape:version="0.92.4 5da689c313, 2019-01-14"><metadata
     id="metadata1597"><rdf:RDF><cc:Work
         rdf:about=""><dc:format>image/svg+xml</dc:format><dc:type
           rdf:resource="http://purl.org/dc/dcmitype/StillImage" /><dc:title></dc:title></cc:Work></rdf:RDF></metadata><defs
     id="defs1595" /><sodipodi:namedview
     pagecolor="#ffffff"
     bordercolor="#666666"
     borderopacity="1"
     objecttolerance="10"
     gridtolerance="10"
     guidetolerance="10"
     inkscape:pageopacity="0"
     inkscape:pageshadow="2"
     inkscape:window-width="1900"
     inkscape:window-height="1154"
     id="namedview1593"
     showgrid="false"
     inkscape:zoom="0.52441119"
     inkscape:cx="599.15923"
     inkscape:cy="-225.2937"
     inkscape:window-x="8"
     inkscape:window-y="36"
     inkscape:window-maximized="0"
     inkscape:current-layer="g1601"
     fit-margin-top="0"
     fit-margin-left="0"
     fit-margin-right="0"
     fit-margin-bottom="0" /><g
     id="g1599"
     inkscape:groupmode="layer"
     inkscape:label="ink_ext_XXXXXX"
     transform="matrix(1.3333333,0,0,-1.3333333,662.07436,560.96522)"><g
       id="g1601"
       transform="scale(0.1)"><path
         d="m -2142.5778,2563.439 h 177.5 v -450 h -790.12 l -426.24,367.8 -52.27,-60.5 448.76,-387.3 h 899.87 v 530 h 162.5 v 80 h -420 z m -864.53,706.1 -185.66,193.9 185.66,194 c 41.94,-53.6 67.03,-120.9 67.03,-194 0,-73.1 -25.09,-140.4 -67.03,-193.9 z m -247.97,-121.1 c -68.19,0 -131.34,21.9 -182.96,58.9 l 182.96,191.1 182.97,-191.1 c -51.62,-37 -114.77,-58.9 -182.97,-58.9 z m -315,315 c 0,73.1 25.1,140.4 67.04,194 l 185.66,-194 -185.66,-193.9 c -41.94,53.5 -67.04,120.8 -67.04,193.9 z m 315,315 c 68.2,0 131.35,-21.8 182.97,-58.8 l -182.97,-191.1 -182.96,191.1 c 51.62,37 114.77,58.8 182.96,58.8 z m 1370,-910 v 605 h -965.25 c -5.34,218.7 -184.78,395 -404.75,395 -219.96,0 -399.4,-176.3 -404.74,-395 h -635.26 v -1440 h 1010 v 80 h -930 v 1280 h 561.19 c 33.27,-190 199.38,-335 398.81,-335 199.44,0 365.55,145 398.82,335 h 891.18 v -525 h -337.5 v -80 h 740 v 80 z m -3080.48,-274.9 77.69,-0.1 6.55,76.8 148.97,-0.3 -0.81,-527.3 -74.97,-12.8 -0.09,-57.9 240.45,-0.4 0.09,58 -74.91,12.9 0.81,527.4 148.5,-0.2 6.78,-76.8 77.24,-0.2 0.24,148.1 -556.31,0.8 z m 394.9,266.2 -74.91,13 0.81,527.3 74.96,12.8 0.1,58.3 -240.45,0.4 -0.1,-58.4 74.91,-13 -0.81,-527.3 -74.96,-12.8 -0.09,-57.9 240.45,-0.4 z m 2269.96,1008.9 c 0.13,77.6 17.92,141 53.4,190.3 35.48,49.3 84.77,73.9 147.92,73.8 65.9,-0.1 117.43,-24.8 154.6,-74.1 37.17,-49.2 55.69,-112.8 55.56,-190.6 l -0.01,-10.6 c -0.12,-78.8 -18.62,-142.6 -55.47,-191.6 -36.86,-49 -88.7,-73.4 -155.51,-73.3 -63.15,0.1 -112.38,24.7 -147.71,74 -35.32,49.2 -52.92,113.1 -52.79,191.6 z m -90.59,-10.4 c -0.15,-97.5 26.69,-178.4 80.54,-242.9 53.85,-64.4 123.98,-96.7 210.42,-96.9 88.89,-0.1 161.35,32 217.38,96.3 56.04,64.2 84.13,145.1 84.29,242.6 l 0.01,9.6 c 0.16,97.2 -27.7,178.2 -83.53,242.9 -55.84,64.8 -128.2,97.2 -217.09,97.4 -86.43,0.1 -156.67,-32.1 -210.71,-96.7 -54.05,-64.6 -81.14,-145.5 -81.3,-242.6 z m -469.84,269.2 148.96,-0.2 -0.81,-527.3 -74.96,-12.8 -0.09,-57.9 240.44,-0.4 0.1,57.9 -74.91,13 0.81,527.4 148.5,-0.3 6.77,-76.8 77.25,-0.1 0.23,148.1 -556.3,0.8 -0.24,-148 77.7,-0.1 z m -1267.4,1.7 128.27,-0.2 c 46.28,0 80.45,-10.4 102.48,-30.9 22.04,-20.6 33.03,-48.5 32.97,-83.7 -0.06,-37.1 -11.59,-65.3 -34.6,-84.6 -23.02,-19.3 -59.83,-28.9 -110.39,-28.8 l -119.08,0.2 z m -91.39,-527.2 -74.95,-12.7 -0.1,-57.9 240.45,-0.4 0.1,57.9 -74.92,13 0.35,228 145.28,-0.2 c 35.56,0 63.89,-11.1 85,-33.2 21.11,-22.1 31.64,-51.4 31.59,-87.9 l -0.08,-51.9 c -0.05,-35 7.33,-64.7 22.15,-89.3 14.83,-24.5 39.87,-36.8 75.12,-36.9 h 48.73 l 0.1,59.3 -22.07,2.8 c -11.95,1.8 -20.53,7.7 -25.71,17.5 -5.21,9.8 -7.78,25 -7.75,45.5 l 0.09,53.8 c 0.06,39.5 -7.94,72.8 -23.99,99.8 -16.05,27 -42.3,46.5 -78.75,58.5 33.73,14.4 59.65,34.1 77.78,59.2 18.12,25.1 27.22,53.9 27.26,86.4 0.09,59.5 -19.3,105.4 -58.17,137.8 -38.88,32.4 -94.8,48.6 -167.74,48.7 l -218.85,0.4 -74.93,0.1 -0.09,-57.9 74.91,-13 z m -180.83,305.4 c -22.56,-24.3 -56.53,-36.4 -101.89,-36.4 l -142.06,0.3 0.4,258.8 142.06,-0.2 c 45.36,-0.1 79.29,-12.6 101.77,-37.4 22.49,-24.9 33.71,-55.9 33.67,-92.9 -0.06,-37.1 -11.38,-67.8 -33.95,-92.2 z m 65.21,238.3 c -39.64,36.9 -95.17,55.3 -166.59,55.4 l -232.63,0.4 -74.93,0.1 -0.1,-58.4 74.91,-13 -0.81,-527.3 -74.95,-12.8 -0.1,-57.9 240.45,-0.4 0.1,58 -74.92,13 0.3,197.7 142.06,-0.3 c 71.41,-0.1 127,18.1 166.76,54.5 39.73,36.4 59.65,84.9 59.75,145.6 0.09,60.1 -19.68,108.6 -59.3,145.4"
         style="fill:#000000;fill-opacity:1;fill-rule:nonzero;stroke:none"
         id="path1803"
         inkscape:connector-curvature="0" /></g></g></svg>