<?xml version="1.0" encoding="UTF-8" standalone="no"?>
<!-- Created with Inkscape (http://www.inkscape.org/) -->

<svg
   xmlns:dc="http://purl.org/dc/elements/1.1/"
   xmlns:cc="http://creativecommons.org/ns#"
   xmlns:rdf="http://www.w3.org/1999/02/22-rdf-syntax-ns#"
   xmlns:svg="http://www.w3.org/2000/svg"
   xmlns="http://www.w3.org/2000/svg"
   xmlns:sodipodi="http://sodipodi.sourceforge.net/DTD/sodipodi-0.dtd"
   xmlns:inkscape="http://www.inkscape.org/namespaces/inkscape"
   version="1.1"
   id="svg1591"
   xml:space="preserve"
   width="3420.3601"
   height="3285.3333"
   viewBox="0 0 3420.3601 3285.3333"
   sodipodi:docname="template.svg"
   inkscape:version="0.92.4 5da689c313, 2019-01-14"><metadata
     id="metadata1597"><rdf:RDF><cc:Work
         rdf:about=""><dc:format>image/svg+xml</dc:format><dc:type
           rdf:resource="http://purl.org/dc/dcmitype/StillImage" /><dc:title></dc:title></cc:Work></rdf:RDF></metadata><defs
     id="defs1595" /><sodipodi:namedview
     pagecolor="#ffffff"
     bordercolor="#666666"
     borderopacity="1"
     objecttolerance="10"
     gridtolerance="10"
     guidetolerance="10"
     inkscape:pageopacity="0"
     inkscape:pageshadow="2"
     inkscape:window-width="946"
     inkscape:window-height="1154"
     id="namedview1593"
     showgrid="false"
     inkscape:zoom="0.071834417"
     inkscape:cx="-1080.9611"
     inkscape:cy="1642.6666"
     inkscape:window-x="962"
     inkscape:window-y="36"
     inkscape:window-maximized="0"
     inkscape:current-layer="g1599" /><g
     id="g1599"
     inkscape:groupmode="layer"
     inkscape:label="ink_ext_XXXXXX"
     transform="matrix(1.3333333,0,0,-1.3333333,0,3285.3333)"><g
       id="g1601"
       transform="scale(0.1)"><path
         d="m 5,5745 v 5800 H 7875 V 5745 H 5"
         style="fill:#274b22;fill-opacity:1;fill-rule:nonzero;stroke:none"
         id="path1603"
         inkscape:connector-curvature="0" /><path
         d="M 7880,11550 H 0 V 5740 h 7880 v 5810 z m -10,-10 V 5750 H 10 v 5790 h 7860"
         style="fill:#100f0d;fill-opacity:1;fill-rule:nonzero;stroke:none"
         id="path1605"
         inkscape:connector-curvature="0" /><path
         d="M 5,45 V 4985 H 7875 V 45 H 5"
         style="fill:#274b22;fill-opacity:1;fill-rule:nonzero;stroke:none"
         id="path1607"
         inkscape:connector-curvature="0" /><path
         d="M 7880,4990 H 0 V 40 h 7880 v 4950 z m -10,-10 V 50 H 10 v 4930 h 7860"
         style="fill:#100f0d;fill-opacity:1;fill-rule:nonzero;stroke:none"
         id="path1609"
         inkscape:connector-curvature="0" /><path
         d="m 8705,5 v 11560 h 7240 V 5 H 8705"
         style="fill:#274b22;fill-opacity:1;fill-rule:nonzero;stroke:none"
         id="path1611"
         inkscape:connector-curvature="0" /><path
         d="M 15950,11570 H 8700 V 0 h 7250 v 11570 z m -10,-10 V 10 H 8710 v 11550 h 7230"
         style="fill:#100f0d;fill-opacity:1;fill-rule:nonzero;stroke:none"
         id="path1613"
         inkscape:connector-curvature="0" /><g
         id="g1615"
         transform="scale(1.51166)"><path
           d="m 9371.58,15049 v -72.3 l 2.84,-524.6 -74.69,-13.2 0.33,-57.8 239.74,1.3 -0.33,57.8 -74.75,12.4 -2.85,525.8 148.12,0.8 7.27,-76.5 77.01,0.4 -0.8,147.6 z m -39.7,-0.2 -193.1,-1.1 0.8,-147.6 77.46,0.4 6.02,76.6 108.82,0.6 z m 546.62,511 -179.27,185.3 177.29,187.2 c 41.21,-50.9 66.08,-115.5 66.41,-185.9 0.4,-70.4 -23.81,-135.3 -64.43,-186.6 z m -232.66,-113.7 c -0.52,0 -1.05,0 -1.65,0 -63.57,0 -124.17,19.8 -174.71,56.4 l 175.11,184.9 176.89,-182.9 c -49.15,-36.4 -109.88,-58.1 -175.64,-58.4 z m -37.44,-204.5 H 8318.43 v 120.7 c 191.18,19.6 340.35,182.1 339.29,378.1 -0.99,194.7 -149.77,354.7 -339.29,374.1 v 106.1 h 1309.82 v -98.2 c -201.97,-8.4 -363.18,-175.9 -362.06,-379.6 0.53,-101 40.36,-195.8 112.13,-266.8 62.78,-62.1 143.35,-99.5 230.08,-107.6 z m -1328.81,198.1 c -63.57,0 -124.17,19.8 -174.77,56.5 l 175.11,184.8 176.95,-182.8 c -49.22,-36.4 -109.88,-58.1 -175.63,-58.5 -0.53,0 -1.13,0 -1.66,0 z m -298.61,297.1 c -0.4,70.4 23.82,135.3 64.43,186.6 l 179.28,-185.3 -177.43,-187.3 c -42.6,52.5 -65.95,117.4 -66.28,186 z m 530.94,189.1 c 41.15,-50.9 66.02,-115.5 66.42,-185.9 0.4,-70.4 -23.82,-135.3 -64.43,-186.6 l -179.34,185.3 z m -233.85,111.2 c 0.53,0 1.06,0 1.59,0 65.16,0 125.49,-21 174.64,-56.6 l -174.97,-184.7 -176.89,182.8 c 49.15,36.4 109.88,58.2 175.63,58.5 z m 1311.28,-292.6 -177.49,-187.3 c -42.54,52.5 -65.95,117.4 -66.28,186 -0.4,70.4 23.81,135.2 64.43,186.6 z m 54.97,299 c 65.1,0 125.43,-21.1 174.58,-56.6 l -174.98,-184.7 -176.89,182.8 c 49.22,36.4 109.88,58.1 175.64,58.5 0.53,0 1.06,0 1.65,0 z m 63.31,73.9 V 16300 H 6459.56 v -436.6 h -168.69 v -79.4 h 396.89 v 79.4 h -148.81 v 357.2 h 1700.09 v -106.3 c -86.33,-9.1 -166.24,-47.4 -228.16,-110 -71.05,-71.8 -109.88,-166.9 -109.28,-267.9 0.53,-101 40.35,-195.7 112.13,-266.8 61.58,-60.9 140.44,-98.1 225.31,-107.1 v -120.9 H 6538.95 v 410.1 h 82.66 v 79.4 h -264.58 v -79.4 h 102.53 v -489.5 h 3228.22 v 207 c 85.27,9.8 164.06,47.8 225.25,109.6 71.05,71.8 109.87,167 109.27,268 v 0 c -1,186.2 -137.05,340.5 -314.67,370.6 z m -1030.06,-52.9 0.79,-147.6 77.47,0.4 6.02,76.6 148.51,0.8 2.78,-525.8 -74.62,-13.2 0.33,-57.8 239.73,1.3 -0.33,57.7 -74.75,12.5 -2.84,525.8 148.05,0.8 7.34,-76.6 77,0.5 -0.79,147.6 z M 7687,15789.7 c -22.82,-19.4 -59.47,-29.2 -109.88,-29.5 l -118.75,-0.6 -1.19,227.3 127.88,0.7 c 46.17,0.3 80.31,-9.8 102.4,-30.2 22.1,-20.3 33.28,-48.1 33.41,-83.2 0.2,-37 -11.12,-65.2 -33.87,-84.5 z m 97.64,-2.3 c 17.86,25.2 26.73,54 26.59,86.4 -0.33,59.2 -19.98,104.9 -58.94,136.9 -39.03,32.1 -94.86,47.9 -167.63,47.5 l -218.17,-1.2 -74.75,-0.4 0.33,-57.7 74.82,-12.4 2.78,-525.8 -74.62,-13.3 0.26,-57.7 239.74,1.3 -0.27,57.7 -74.82,12.4 -1.19,227.4 144.88,0.8 c 35.39,0.2 63.77,-10.7 84.94,-32.6 21.23,-21.9 31.88,-51 32.08,-87.4 l 0.27,-51.8 c 0.19,-34.8 7.8,-64.4 22.75,-88.8 14.95,-24.3 39.96,-36.4 75.15,-36.2 l 48.56,0.2 -0.33,59.2 -21.97,2.6 c -11.97,1.8 -20.57,7.5 -25.8,17.3 -5.22,9.7 -7.93,24.8 -8,45.3 l -0.33,53.6 c -0.2,39.5 -8.4,72.6 -24.54,99.4 -16.21,26.8 -42.54,46.1 -78.99,57.8 33.54,14.5 59.27,34.4 77.2,59.5 z m -922.5,-61.7 -1.39,258.1 141.7,0.7 c 45.18,0.3 79.12,-11.9 101.74,-36.6 22.56,-24.6 33.94,-55.4 34.14,-92.4 0.2,-37 -10.85,-67.7 -33.21,-92.1 -22.29,-24.4 -56.1,-36.7 -101.28,-37 z m 307.94,-14.4 c 39.36,36.6 58.88,85.1 58.55,145.6 -0.27,59.9 -20.31,108.1 -60.14,144.5 -39.75,36.5 -95.26,54.5 -166.44,54.2 l -231.93,-1.3 -74.75,-0.4 0.33,-58.2 74.75,-12.4 2.85,-525.8 -74.69,-13.2 0.33,-57.8 239.74,1.3 -0.33,57.7 -74.75,12.5 -1.06,197.1 141.63,0.7 c 71.25,0.4 126.49,18.9 165.91,55.5 z m 1557.56,-720.8 c -39.75,36.5 -95.26,54.5 -166.43,54.2 l -106.18,-0.6 1.06,-71.1 105.51,0.6 c 45.18,0.2 79.12,-12 101.74,-36.6 22.56,-24.6 33.94,-55.4 34.14,-92.4 0.2,-37 -10.85,-67.7 -33.14,-92.1 -22.36,-24.4 -56.17,-36.7 -101.35,-37 l -103.06,-0.5 1.05,-70.6 102.34,0.5 c 71.25,0.4 126.49,18.9 165.91,55.5 39.36,36.5 58.88,85.1 58.61,145.6 -0.33,59.9 -20.37,108.1 -60.2,144.5 z m -304.89,-543.4 -0.86,166 h -0.13 l -6.42,430.8 -86.07,-0.5 -74.75,-0.4 0.33,-58.2 74.75,-12.4 2.85,-525.8 -74.69,-13.3 0.33,-57.7 239.74,1.3 -0.33,57.7 z m 594.64,239.2 -0.39,83.7 -90.17,-29.6 0.4,-83.7 z m -91.22,179.5 0.4,-83.7 90.16,29.6 -0.39,83.7 z m 92.48,-415.6 -0.33,69 -90.17,-29.6 0.2,-39.8 -74.62,-13.3 0.27,-57.7 239.8,1.2 -0.33,57.8 z m -0.6,110.8 -0.39,83.6 -90.17,-29.6 0.46,-83.7 z m -92.14,346.5 90.16,29.6 -0.2,38.9 74.69,13.3 -0.33,58.2 -239.74,-1.3 0.27,-58.2 74.81,-12.5 0.34,-68"
           style="fill:#100f0d;fill-opacity:1;fill-rule:nonzero;stroke:none"
           id="path1617"
           inkscape:connector-curvature="0" /></g><g
         id="g1619"
         transform="scale(1.50307)"><path
           d="m 3250.16,14127 -93.77,-34.1 13.65,-37.5 93.78,34.1 z m -608.89,469.8 h -419.15 v -39.9 h 159.68 v -79 h -106.45 v -39.9 h 106.45 v -79 h -106.45 v -39.9 h 106.45 v -79.1 h -106.45 v -39.9 h 106.45 v -79 h -219.56 v -39.9 h 219.56 v -79 h -106.45 v -39.9 h 106.45 v -79 h -106.45 v -39.9 h 106.45 v -79 h -106.45 v -40 h 106.45 v -79 h -219.56 v -39.9 h 352.62 v 39.9 h -93.15 v 911.5 h 219.56 c 121.06,0 219.55,-98.5 219.55,-219.6 0,-121 -98.49,-219.5 -219.55,-219.5 h -119.76 v -39.9 h 119.76 c 143.07,0 259.46,116.4 259.46,259.4 0,143.1 -116.39,259.5 -259.46,259.5 z m 622.55,-933.1 -13.66,37.5 -93.77,-34.1 7.87,-21.7 h -77.24 v -39.9 h 239.51 v 39.9 h -62.71 z m -13.66,569.8 -93.77,-34.2 13.65,-37.5 93.78,34.1 z m -80.12,-497.5 93.78,34.1 -13.66,37.6 -93.77,-34.2 z m 80.12,178.1 -93.77,-34.1 13.65,-37.5 93.78,34.1 z m 0,106.5 -93.77,-34.2 13.65,-37.5 93.78,34.1 z m 289.27,429.8 h 39.92 v 86.5 h 159.67 v 40 h -199.59 z m 299.39,-805 h -96.47 v -39.9 h 239.51 v 39.9 h -103.13 v 891.5 h 259.47 v -93.1 h 39.92 v 133.1 h -339.3 z m -586.2,799.8 -94.69,-31.5 12.61,-37.9 94.68,31.5 z m -165.6,85.1 h 70.91 v -10.2 l 12.61,-37.8 94.69,31.5 -5.5,16.5 h 66.8 v 39.9 h -239.51 z m 80.56,-260.9 94.7,31.5 -12.61,37.9 -94.69,-31.5 z M 4038.41,16300 H 2721.1 v -39.9 H 4038.41 Z M 552.204,15501.6 h 192.939 v 40 H 299.388 v -40 h 212.898 v -691.9 h 133.061 v 39.9 h -93.143 z m 1955.996,-652 H 738.49 v -39.9 H 2508.2 Z m -1343.91,692 h -119.76 v -40 h 119.76 c 143.07,0 259.47,116.4 259.47,259.5 0,143.1 -116.4,259.5 -259.47,259.5 H 904.816 v -951.4 H 798.367 v -39.9 h 239.513 v 39.9 h -93.145 v 911.5 h 219.555 c 121.06,0 219.55,-98.5 219.55,-219.6 0,-121.1 -98.49,-219.5 -219.55,-219.5 z m 652,0 h -219.56 v 439.1 h 219.56 c 121.06,0 219.55,-98.5 219.55,-219.6 0,-121.1 -98.49,-219.5 -219.55,-219.5 z m 259.47,219.5 c 0,143.1 -116.4,259.5 -259.47,259.5 h -259.47 v -951.4 h -93.15 v -39.9 h 239.51 v 39.9 h -106.45 v 432.4 h 207.14 l 232.86,-472.3 h 145.47 v 39.9 h -120.64 l -214.14,434.4 c 128.44,15.4 228.34,125 228.34,257.5 z m 1164.28,259.5 h -199.59 v -126.4 h 39.92 v 86.5 h 159.67 z m 439.1,-133.1 v 133.1 h -339.3 v -958.1 h -106.45 v -39.9 h 239.51 v 39.9 h -93.14 v 918.2 h 259.46 v -93.2 z m 804.6,-669.9 -297.35,297.3 303.74,303.8 c 70.69,-78.9 113.79,-183.1 113.79,-297.1 0,-117.4 -45.72,-224.3 -120.18,-304 z m -325.58,-141.8 c -114.04,0 -218.17,43.1 -297.08,113.8 l 297.08,297.1 297.09,-297.1 c -78.91,-70.7 -183.05,-113.8 -297.09,-113.8 z m -445.75,445.8 c 0,114 43.1,218.2 113.79,297.1 l 303.74,-303.8 -297.36,-297.3 c -74.46,79.7 -120.17,186.6 -120.17,304 z m 445.75,445.7 c 117.42,0 224.31,-45.7 304.01,-120.1 l -304.01,-304 -304,304 c 79.7,74.4 186.58,120.1 304,120.1 z m -1853.9,-777.7 297.09,297.1 297.08,-297.1 c -78.91,-70.7 -183.04,-113.8 -297.08,-113.8 -114.04,0 -218.18,43.1 -297.09,113.8 z m -148.67,332 c 0,114 43.1,218.2 113.8,297.1 l 303.74,-303.8 -297.36,-297.3 c -74.46,79.7 -120.18,186.6 -120.18,304 z m 445.76,445.7 c 117.42,0 224.3,-45.7 304,-120.1 l -304,-304 -304.01,304 c 79.7,74.4 186.59,120.1 304.01,120.1 z m 445.75,-445.7 c 0,-117.4 -45.71,-224.3 -120.17,-304 l -297.36,297.3 303.74,303.8 c 70.69,-78.9 113.79,-183.1 113.79,-297.1 z m 1131.02,485.2 v 293.2 h -39.92 v -293.2 c -258.57,-10.6 -465.71,-224.1 -465.71,-485.2 0,-261.1 207.14,-474.7 465.71,-485.2 v -186.8 H 2627.96 v 187.1 c 255.47,13.8 459.06,226 459.06,484.9 0,261.1 -207.14,474.6 -465.71,485.2 V 16300 H 512.286 v -618.7 H 372.571 v -40 h 299.388 v 40 H 552.204 v 578.8 H 2581.39 v -253.3 c -258.57,-10.6 -465.72,-224.1 -465.72,-485.2 0,-263.3 210.71,-478.2 472.37,-485.3 v -226.6 h 1590.08 v 226.7 c 258.57,10.5 465.72,224.1 465.72,485.2 0,261.1 -207.15,474.6 -465.72,485.2"
           style="fill:#100f0d;fill-opacity:1;fill-rule:nonzero;stroke:none"
           id="path1621"
           inkscape:connector-curvature="0" /></g><path
         d="m 4885.21,7393.8 -140.95,-51.3 20.53,-56.3 140.95,51.3 z M 3970,8100 h -630 v -60 h 240 v -118.8 h -160 v -60 h 160 v -118.7 h -160 v -60 h 160 v -118.8 h -160 v -60 h 160 V 7385 h -330 v -60 h 330 v -118.8 h -160 v -60 h 160 v -118.7 h -160 v -60 h 160 v -118.8 h -160 v -60 h 160 V 6670 h -330 v -60 h 530 v 60 h -140 v 1370 h 330 c 181.96,0 330,-148 330,-330 0,-182 -148.04,-330 -330,-330 h -180 v -60 h 180 c 215.05,0 390,175 390,390 0,215 -174.95,390 -390,390 z m 935.74,-1402.5 -20.53,56.3 -140.95,-51.3 11.84,-32.5 H 4640 v -60 h 360 v 60 h -94.26 z m -20.53,856.3 -140.95,-51.3 20.53,-56.3 140.95,51.3 z m -120.42,-747.6 140.95,51.3 -20.53,56.3 -140.95,-51.3 z m 120.42,267.6 -140.95,-51.3 20.53,-56.3 140.95,51.3 z m 0,160 -140.95,-51.3 20.53,-56.3 140.95,51.3 z M 5320,7880 h 60 v 130 h 240 v 60 h -300 z m 450,-1210 h -145 v -60 h 360 v 60 h -155 v 1340 h 390 v -140 h 60 v 200 h -510 z m -881.09,1202.1 -142.33,-47.4 18.95,-56.9 142.32,47.4 z M 4640,8000 h 106.58 v -15.3 l 18.95,-56.9 142.33,47.4 -8.27,24.8 H 5000 v 60 h -360 z m 121.09,-392.1 142.33,47.4 -18.95,56.9 -142.32,-47.4 z M 6070,10660 H 4090 v -60 H 6070 Z M 830,9460 h 290 v 60 H 450 v -60 H 770 V 8420 h 200 v 60 H 830 Z M 3770,8480 H 1110 v -60 H 3770 Z M 1750,9520 h -180 v -60 h 180 c 215.05,0 390,175 390,390 0,215 -174.95,390 -390,390 H 1360 V 8810 h -160 v -60 h 360 v 60 h -140 v 1370 h 330 c 181.96,0 330,-148 330,-330 0,-182 -148.04,-330 -330,-330 z m 980,0 h -330 v 660 h 330 c 181.96,0 330,-148 330,-330 0,-182 -148.04,-330 -330,-330 z m 390,330 c 0,215 -174.95,390 -390,390 H 2340 V 8810 h -140 v -60 h 360 v 60 h -160 v 650 h 311.34 l 350,-710 H 3280 v 60 h -181.34 l -321.86,652.9 c 193.05,23.2 343.2,187.9 343.2,387.1 z m 1750,390 h -300 v -190 h 60 v 130 h 240 z m 660,-200 v 200 H 5020 V 8800 h -160 v -60 h 360 v 60 h -140 v 1380 h 390 v -140 z M 6739.37,9033.1 6292.42,9480 6748.96,9936.5 C 6855.22,9817.9 6920,9661.4 6920,9490 c 0,-176.5 -68.71,-337.1 -180.63,-456.9 z M 6250,8820 c -171.41,0 -327.93,64.8 -446.54,171 L 6250,9437.6 6696.54,8991 C 6577.93,8884.8 6421.41,8820 6250,8820 Z m -670,670 c 0,171.4 64.78,327.9 171.04,446.5 L 6207.58,9480 5760.63,9033.1 C 5648.71,9152.9 5580,9313.5 5580,9490 Z m 670,670 c 176.49,0 337.15,-68.7 456.94,-180.6 l -456.94,-457 -456.94,457 c 119.79,111.9 280.45,180.6 456.94,180.6 z M 3463.46,8991 3910,9437.6 4356.54,8991 C 4237.93,8884.8 4081.41,8820 3910,8820 c -171.41,0 -327.93,64.8 -446.54,171 z M 3240,9490 c 0,171.4 64.78,327.9 171.04,446.5 L 3867.58,9480 3420.63,9033.1 C 3308.71,9152.9 3240,9313.5 3240,9490 Z m 670,670 c 176.49,0 337.15,-68.7 456.94,-180.6 l -456.94,-457 -456.94,457 c 119.79,111.9 280.45,180.6 456.94,180.6 z m 670,-670 c 0,-176.5 -68.71,-337.1 -180.63,-456.9 l -446.95,446.9 456.54,456.5 C 4515.22,9817.9 4580,9661.4 4580,9490 Z m 1700,729.2 v 440.8 h -60 v -440.8 c -388.65,-15.8 -700,-336.7 -700,-729.2 0,-392.5 311.35,-713.4 700,-729.2 V 8480 H 3950 v 281.1 c 383.99,20.9 690,339.8 690,728.9 0,392.5 -311.35,713.4 -700,729.2 V 10660 H 770 V 9730 H 560 v -60 h 450 v 60 H 830 v 870 h 3050 v -380.8 c -388.65,-15.8 -700,-336.7 -700,-729.2 0,-395.8 316.71,-718.8 710,-729.5 V 8420 h 2390 v 340.8 c 388.65,15.8 700,336.7 700,729.2 0,392.5 -311.35,713.4 -700,729.2"
         style="fill:#ffffff;fill-opacity:1;fill-rule:nonzero;stroke:none"
         id="path1623"
         inkscape:connector-curvature="0" /><g
         id="g1625"
         transform="scale(1.23681)"><path
           d="m 11240,15387.3 -219.3,226.7 216.7,228.8 c 50.4,-62.2 80.7,-141.2 81.2,-227.2 0.4,-83.9 -27.3,-163.5 -78.6,-228.3 z m -284.6,-138.8 c -78.5,-0.3 -153.3,23.9 -215.5,69 l 214,226 216.4,-223.7 c -61.9,-45.8 -136.4,-70.9 -214.9,-71.3 z m -367,363.2 c -0.4,83.8 27.3,163.4 78.6,228.2 l 219.3,-226.7 -216.8,-228.9 c -52.1,64.2 -80.6,143.5 -81.1,227.4 z m 363.2,367 c 0.6,0 1.3,0 1.9,0 79.6,0 153.4,-25.7 213.5,-69.2 l -213.9,-225.8 -216.4,223.7 c 61.9,45.8 136.4,70.9 214.9,71.3 z m 57.5,93.6 V 16300 H 8728.99 v -533.6 h -206.17 v -97.1 h 485.11 v 97.1 H 8826.01 V 16203 H 10912 v -129.2 c -108.6,-9.7 -209.4,-56.8 -287,-135.2 -86.8,-87.7 -134.2,-204 -133.6,-327.5 0.7,-123.4 49.3,-239.2 137.1,-326 71.4,-70.6 161.6,-115.1 259.3,-128.9 v -149.9 H 8826.01 v 501.3 h 101.07 v 97.1 h -323.41 v -97.1 h 125.32 v -598.3 h 2255.81 v 243.3 c 112.5,7.5 217.2,55.1 297.2,136 86.8,87.7 134.2,204 133.6,327.5 -1.2,235.1 -178.9,428.8 -406.5,456.2 z m -780,-396 c -27.9,-23.7 -72.6,-35.7 -134.3,-36.1 l -145.09,-0.7 -1.45,277.9 156.24,0.8 c 56.5,0.3 98.2,-12 125.2,-36.9 27,-24.9 40.7,-58.8 40.9,-101.7 0.3,-45.2 -13.6,-79.7 -41.5,-103.3 z m 119.4,-2.8 c 21.8,30.8 32.6,65.9 32.5,105.5 -0.4,72.5 -24.4,128.3 -72.1,167.5 -47.7,39.1 -115.9,58.5 -204.8,58 l -266.69,-1.4 -91.29,-0.5 0.33,-70.6 91.44,-15.2 3.4,-642.7 -91.21,-16.1 0.33,-70.6 292.99,1.5 -0.3,70.6 -91.45,15.2 -1.45,277.9 177.1,1 c 43.3,0.2 77.9,-13.1 103.8,-39.8 25.9,-26.8 39,-62.4 39.2,-106.8 l 0.4,-63.3 c 0.2,-42.6 9.5,-78.8 27.7,-108.6 18.3,-29.8 48.9,-44.5 91.9,-44.3 l 59.3,0.3 -0.3,72.3 -26.9,3.2 c -14.7,2.2 -25.1,9.2 -31.6,21.1 -6.3,11.9 -9.7,30.4 -9.7,55.4 l -0.4,65.6 c -0.3,48.2 -10.3,88.6 -30,121.4 -19.8,32.8 -52,56.3 -96.5,70.6 41,17.8 72.4,42.1 94.3,72.8 z m -1127.52,-75.5 -1.61,315.5 173.1,0.9 c 55.22,0.3 96.7,-14.6 124.35,-44.7 27.57,-30.1 41.56,-67.8 41.72,-113 0.25,-45.2 -13.26,-82.7 -40.5,-112.5 -27.33,-29.9 -68.65,-44.9 -123.87,-45.2 z m 376.37,-17.6 c 48.11,44.7 71.96,104.1 71.64,178 -0.41,73.2 -24.9,132.1 -73.58,176.7 -48.59,44.6 -116.43,66.6 -203.42,66.1 l -283.48,-1.5 -91.36,-0.4 0.4,-71.2 91.45,-15.2 3.4,-642.6 -91.29,-16.2 0.41,-70.6 293.01,1.6 -0.32,70.6 -91.45,15.1 -1.29,241 173.1,0.9 c 87.08,0.5 154.68,23 202.78,67.7"
           style="fill:#100f0d;fill-opacity:1;fill-rule:nonzero;stroke:none"
           id="path1627"
           inkscape:connector-curvature="0" /></g><g
         id="g1629"
         transform="scale(1.04052)"><path
           d="m 12056,15624.1 -257.2,265.9 c 73.5,54.5 162.1,84.2 255.3,84.7 0.8,0 1.6,0 2.3,0 94.7,0 182.3,-30.5 253.8,-82.2 z m 434.3,-81 c 0.6,-102.3 -34.5,-196.5 -93.6,-271.1 l -260.4,269.2 257.6,272 c 59.8,-74 96,-167.9 96.4,-270.1 z m -431.6,-436.3 c -95.6,-0.6 -184.1,30 -256.2,82.1 l 254.4,268.5 257,-265.6 c -71.4,-52.9 -159.6,-84.5 -255.2,-85 z m -436.2,431.7 c -0.6,99.6 32.4,194.2 93.4,271.2 l 260.7,-269.4 -257.7,-272 c -59.8,74 -95.9,167.9 -96.4,270.2 z m 1200.4,251.6 v 509.9 h -1701.1 v -519 h -245.1 v -115.3 h 576.7 v 115.3 h -216.3 v 403.7 h 755 v -98.5 c -123.4,-14.3 -237.4,-69.5 -326.1,-159.1 -103.3,-104.3 -159.6,-242.5 -158.8,-389.3 0.8,-146.7 58.6,-284.3 162.9,-387.5 92.8,-91.8 212.6,-146.5 341.3,-156.9 v -96.5 h -774.3 v 557.4 h 120.2 v 115.3 h -384.5 v -115.3 h 149 v -672.8 h 1701.1 v 499.3 h -115.4 v -383.9 h -580.8 v 99.2 c 271,34.8 480.5,267.5 479,547.6 -1.5,284.7 -220.5,518.2 -498.2,543.9 v 97.1 h 600 v -394.6 h 115.4"
           style="fill:#100f0d;fill-opacity:1;fill-rule:nonzero;stroke:none"
           id="path1631"
           inkscape:connector-curvature="0" /></g><path
         d="m 14166.6,8908.9 v -109.3 l 4.3,-792.9 -112.9,-20.1 0.5,-87.3 362.4,2 -0.5,87.3 -113,18.8 -4.3,794.8 223.9,1.2 11,-115.7 116.4,0.6 -1.2,223.2 z m -60,-0.3 -291.9,-1.6 1.2,-223.1 117.1,0.6 9.1,115.8 164.5,0.9 z m 826.3,772.4 -271,280.1 268,283 c 62.3,-76.9 99.9,-174.6 100.4,-281 0.6,-106.4 -36,-204.5 -97.4,-282.1 z m -351.7,-171.8 c -0.8,-0.1 -1.6,-0.1 -2.5,-0.1 -96.1,0 -187.7,30 -264.1,85.4 l 264.7,279.4 267.4,-276.4 c -74.3,-55 -166.1,-87.8 -265.5,-88.3 z m -56.6,-309.2 h -1950 v 182.6 c 289,29.6 514.5,275.1 512.9,571.5 -1.5,294.3 -226.4,536.2 -512.9,565.5 v 160.4 h 1980 v -148.4 c -305.3,-12.8 -549,-265.9 -547.3,-574 0.8,-152.6 61,-295.8 169.5,-403.2 94.9,-93.9 216.7,-150.5 347.8,-162.7 z m -2008.7,299.5 c -96.1,0 -187.7,30 -264.2,85.4 l 264.7,279.4 267.5,-276.4 c -74.4,-55 -166.1,-87.8 -265.5,-88.4 -0.8,0 -1.7,0 -2.5,0 z m -451.4,449.2 c -0.6,106.4 36,204.4 97.4,282 l 271,-280.1 -268.2,-283.1 c -64.4,79.4 -99.7,177.5 -100.2,281.2 z m 802.6,285.8 c 62.2,-77 99.8,-174.6 100.4,-281 0.6,-106.4 -36,-204.5 -97.4,-282.1 l -271.1,280.1 z m -353.5,168.1 c 0.8,0 1.6,0 2.4,0 98.5,0 189.7,-31.8 264,-85.6 l -264.5,-279.2 -267.4,276.4 c 74.3,55 166.1,87.9 265.5,88.4 z m 1982.2,-442.4 -268.3,-283.1 c -64.3,79.4 -99.7,177.5 -100.2,281.2 -0.6,106.4 36,204.4 97.4,282 z m 83.1,452 c 98.4,0 189.6,-31.8 263.9,-85.6 l -264.5,-279.2 -267.4,276.4 c 74.4,55 166.1,87.9 265.5,88.4 0.8,0 1.6,0 2.5,0 z m 95.7,111.8 v 276 H 9764.64 v -660 h -255 v -120 h 599.96 v 120 h -224.96 v 540 h 2569.96 v -160.7 c -130.5,-13.8 -251.3,-71.7 -344.9,-166.3 -107.4,-108.5 -166.1,-252.3 -165.2,-405 0.8,-152.6 61,-295.9 169.5,-403.2 93.1,-92.2 212.3,-148.4 340.6,-162 V 9200 H 9884.64 v 620 h 124.96 v 120 h -399.96 v -120 h 155 v -740 h 4879.96 v 313 c 128.9,14.7 248,72.2 340.5,165.7 107.4,108.5 166.1,252.4 165.2,405 v 0 c -1.5,281.5 -207.2,514.8 -475.7,560.3 z m -1557.1,-80 1.2,-223.1 117.1,0.6 9.1,115.8 224.5,1.2 4.2,-794.8 -112.8,-20 0.5,-87.4 362.4,2 -0.5,87.3 -113,18.8 -4.3,794.8 223.8,1.2 11.1,-115.7 116.4,0.6 -1.2,223.2 z m -1497.4,-415.4 c -34.5,-29.3 -89.9,-44.2 -166.1,-44.6 l -179.5,-1 -1.8,343.8 193.3,1 c 69.8,0.4 121.4,-14.9 154.8,-45.6 33.4,-30.8 50.3,-72.8 50.5,-125.9 0.3,-55.9 -16.8,-98.5 -51.2,-127.7 z m 147.6,-3.4 c 27,38 40.4,81.5 40.2,130.5 -0.5,89.6 -30.2,158.6 -89.1,207 -59,48.5 -143.4,72.4 -253.4,71.8 l -329.8,-1.8 -113,-0.6 0.5,-87.3 113.1,-18.8 4.2,-794.8 -112.8,-20 0.4,-87.3 362.4,1.9 -0.4,87.3 -113.1,18.8 -1.8,343.7 219,1.2 c 53.5,0.3 96.4,-16.1 128.4,-49.2 32.1,-33.1 48.2,-77.1 48.5,-132.1 l 0.4,-78.3 c 0.3,-52.7 11.8,-97.4 34.4,-134.3 22.6,-36.8 60.4,-55.1 113.6,-54.8 l 73.4,0.4 -0.5,89.4 -33.2,4 c -18.1,2.7 -31.1,11.4 -39,26.1 -7.9,14.7 -12,37.6 -12.1,68.5 l -0.5,81.1 c -0.3,59.6 -12.7,109.7 -37.1,150.2 -24.5,40.5 -64.3,69.6 -119.4,87.4 50.7,21.9 89.6,51.9 116.7,90 z m -1394.5,-93.4 -2.1,390.1 214.2,1.2 c 68.3,0.4 119.6,-18.1 153.8,-55.3 34.1,-37.3 51.3,-83.8 51.6,-139.7 0.3,-55.9 -16.4,-102.3 -50.2,-139.2 -33.7,-36.9 -84.8,-55.6 -153.1,-55.9 z m 465.5,-21.8 c 59.5,55.3 89,128.7 88.5,220.2 -0.4,90.5 -30.7,163.4 -90.9,218.5 -60.1,55.1 -144,82.4 -251.6,81.8 l -350.6,-1.9 -113,-0.6 0.5,-88 113,-18.8 4.3,-794.8 -112.9,-20 0.5,-87.3 362.4,1.9 -0.5,87.3 -113,18.8 -1.6,298 214.1,1.1 c 107.7,0.6 191.2,28.5 250.8,83.8 z m 2354.5,-1089.5 c -60.1,55.2 -144,82.4 -251.6,81.9 l -160.5,-0.9 1.6,-107.4 159.5,0.9 c 68.3,0.3 119.6,-18.1 153.8,-55.4 34.1,-37.2 51.3,-83.8 51.6,-139.7 0.3,-55.9 -16.4,-102.3 -50.1,-139.2 -33.8,-36.9 -84.9,-55.5 -153.2,-55.9 l -155.8,-0.8 1.6,-106.7 154.7,0.8 c 107.7,0.6 191.2,28.5 250.8,83.8 59.5,55.3 89,128.7 88.6,220.1 -0.5,90.6 -30.8,163.4 -91,218.5 z m -460.9,-821.5 -1.3,251 h -0.2 l -9.7,651.2 -130.1,-0.7 -113,-0.6 0.5,-88 113,-18.8 4.3,-794.8 -112.9,-20 0.5,-87.4 362.4,2 -0.5,87.3 z m 898.9,361.7 -0.6,126.5 -136.3,-44.8 0.6,-126.5 z m -137.9,271.3 0.6,-126.5 136.3,44.8 -0.6,126.5 z m 139.8,-628.2 -0.5,104.3 -136.3,-44.8 0.3,-60.2 -112.8,-20.1 0.4,-87.3 362.5,2 -0.5,87.3 z m -0.9,167.4 -0.6,126.5 -136.3,-44.8 0.7,-126.5 z m -139.3,523.8 136.3,44.8 -0.3,58.8 112.9,20 -0.5,88 -362.4,-1.9 0.4,-88 113.1,-18.8 0.5,-102.9"
         style="fill:#ffffff;fill-opacity:1;fill-rule:nonzero;stroke:none"
         id="path1633"
         inkscape:connector-curvature="0" /><path
         d="m 13901.7,5191.2 -271.2,280.3 268,283 c 62.3,-77 99.9,-174.6 100.4,-281 0.6,-103.7 -33.7,-202.2 -97.2,-282.3 z m -351.9,-171.7 c -97.2,-0.4 -189.6,29.5 -266.6,85.4 l 264.7,279.4 267.6,-276.6 c -76.5,-56.7 -168.7,-87.7 -265.7,-88.2 z m -453.9,449.2 c -0.6,103.6 33.7,202.1 97.2,282.2 l 271.2,-280.3 -268.2,-283.1 c -64.4,79.3 -99.7,177.5 -100.2,281.2 z m 449.1,453.9 c 0.8,0 1.6,0 2.4,0 98.5,0 189.7,-31.8 264,-85.6 l -264.5,-279.2 -267.6,276.6 c 76.5,56.7 168.7,87.7 265.7,88.2 z m 71.1,115.7 V 6320 h -2820 v -660 h -255 v -120 h 600 v 120 h -225 v 540 h 2580 v -159.8 c -134.4,-11.9 -259,-70.2 -355,-167.2 -107.4,-108.5 -166,-252.3 -165.2,-405 0.8,-152.6 61,-295.9 169.5,-403.2 88.3,-87.4 199.9,-142.4 320.7,-159.5 V 4720 h -2550 v 620 h 125 v 120 h -400 v -120 h 155 v -740 h 2790 v 300.9 c 139.2,9.3 268.6,68.1 367.6,168.2 107.4,108.5 166,252.3 165.2,405 -1.5,290.9 -221.2,530.3 -502.8,564.2 z m -964.6,-489.7 c -34.5,-29.3 -89.9,-44.2 -166.1,-44.6 l -179.5,-1 -1.8,343.8 193.3,1 c 69.8,0.4 121.4,-14.9 154.8,-45.6 33.4,-30.8 50.3,-72.8 50.6,-125.9 0.3,-55.9 -16.8,-98.5 -51.3,-127.7 z m 147.6,-3.4 c 27,38 40.4,81.5 40.2,130.5 -0.5,89.6 -30.2,158.6 -89.1,207 -59,48.5 -143.4,72.4 -253.3,71.8 l -329.9,-1.8 -112.9,-0.6 0.4,-87.3 113.1,-18.8 4.2,-794.8 -112.8,-20 0.4,-87.3 362.4,1.9 -0.4,87.3 -113.1,18.8 -1.8,343.7 219,1.2 c 53.6,0.3 96.4,-16.1 128.4,-49.2 32.1,-33.1 48.3,-77.1 48.5,-132.1 l 0.5,-78.3 c 0.2,-52.7 11.7,-97.4 34.3,-134.3 22.6,-36.8 60.4,-55.1 113.6,-54.8 l 73.4,0.4 -0.4,89.4 -33.3,4 c -18.1,2.7 -31,11.4 -39,26.1 -7.9,14.7 -12,37.6 -12.1,68.5 l -0.5,81.1 c -0.3,59.6 -12.7,109.7 -37.1,150.2 -24.5,40.5 -64.3,69.6 -119.3,87.4 50.7,21.9 89.5,51.9 116.6,90 z m -1394.5,-93.4 -2,390.1 214.1,1.2 c 68.3,0.4 119.6,-18.1 153.8,-55.3 34.1,-37.3 51.4,-83.8 51.6,-139.7 0.3,-55.9 -16.4,-102.3 -50.1,-139.2 -33.8,-36.9 -84.9,-55.6 -153.2,-55.9 z m 465.5,-21.8 c 59.5,55.3 89,128.7 88.6,220.2 -0.5,90.5 -30.8,163.4 -91,218.5 -60.1,55.1 -144,82.4 -251.6,81.8 l -350.6,-1.9 -113,-0.6 0.5,-88 113.1,-18.8 4.2,-794.8 -112.9,-20 0.5,-87.3 362.4,1.9 -0.4,87.3 -113.1,18.8 -1.6,298 214.1,1.1 c 107.7,0.6 191.3,28.5 250.8,83.8"
         style="fill:#ffffff;fill-opacity:1;fill-rule:nonzero;stroke:none"
         id="path1635"
         inkscape:connector-curvature="0" /><path
         d="m 12544.5,2417.3 -267.6,276.6 c 76.5,56.7 168.7,87.6 265.7,88.2 0.8,0 1.6,0 2.4,0 98.5,0 189.7,-31.8 264,-85.6 z m 452,-84.4 c 0.6,-106.4 -36,-204.4 -97.4,-282 l -271,280.1 268,283 c 62.3,-77 99.9,-174.7 100.4,-281.1 z M 12547.4,1879 c -99.5,-0.7 -191.6,31.2 -266.6,85.4 l 264.7,279.4 267.4,-276.4 c -74.3,-55 -166.1,-87.9 -265.5,-88.4 z m -453.9,449.1 c -0.6,103.7 33.7,202.2 97.2,282.3 l 271.2,-280.3 -268.1,-283.1 c -62.2,77 -99.8,174.7 -100.3,281.1 z m 1249,261.9 v 530.5 h -1770 v -540 h -255 v -120 h 600 v 120 h -225 v 420 h 785.6 v -102.4 c -128.4,-14.9 -247.1,-72.4 -339.4,-165.6 -107.4,-108.5 -166,-252.4 -165.2,-405 0.8,-152.7 61,-295.9 169.5,-403.3 96.6,-95.5 221.2,-152.4 355.1,-163.2 v -100.5 h -805.6 v 580 h 125 v 120 h -400 v -120 h 155 v -700 h 1770 V 2060 h -120 v -399.5 h -604.4 v 103.3 c 282,36.2 500,278.4 498.4,569.8 -1.5,296.2 -229.4,539.2 -518.4,565.9 v 101 h 624.4 V 2590 h 120"
         style="fill:#ffffff;fill-opacity:1;fill-rule:nonzero;stroke:none"
         id="path1637"
         inkscape:connector-curvature="0" /><g
         id="g1639"
         transform="scale(1.29394)"><path
           d="m 15875.7,15904.8 c 0,101 -24.7,182.8 -73.9,245.3 -49.3,62.4 -115.8,93.7 -199.8,93.7 -82.4,0 -147.7,-31.3 -195.7,-93.7 -48,-62.5 -72.1,-144.3 -72.1,-245.3 v -11.3 c 0,-101.7 24.2,-183.9 72.4,-246.3 48.1,-62.5 113.5,-93.7 196,-93.7 84.6,0 151.2,31.1 200,93.4 48.7,62.3 73.1,144.5 73.1,246.6 z m 64.2,-11.3 c 0,-117.1 -31.2,-212.3 -93.7,-285.7 -62.5,-73.4 -143.7,-110 -243.6,-110 -98.6,0 -178.6,36.7 -240.2,110.3 -61.6,73.5 -92.4,168.7 -92.4,285.4 v 10.2 c 0,116.8 30.7,212 92.1,285.7 61.4,73.7 141.4,110.6 239.9,110.6 100,0 181.3,-36.9 243.9,-110.6 62.7,-73.7 94,-168.9 94,-285.7 v -10.2"
           style="fill:#100f0d;fill-opacity:1;fill-rule:nonzero;stroke:none"
           id="path1641"
           inkscape:connector-curvature="0" /></g><g
         id="g1643"
         transform="scale(1.31488)"><path
           d="m 15858.9,15538.1 c 0,-66 16.7,-121.5 50.1,-166.5 33.4,-45 79.9,-67.5 139.6,-67.5 58.7,0 104.8,22.5 138.2,67.5 33.3,45 50,100.5 50,166.5 v 17.4 c 0,65 -16.8,120.2 -50.3,165.5 -33.6,45.3 -79.9,68 -138.9,68 -59,0 -105.2,-22.7 -138.6,-68 -33.4,-45.3 -50.1,-100.5 -50.1,-165.5 z m -63.2,17.4 c 0,84 23,152.9 69.1,206.6 46,53.8 106.9,80.6 182.8,80.6 76.2,0 137.3,-26.8 183.4,-80.6 46,-53.7 69,-122.6 69,-206.6 v -17.4 c 0,-84.3 -22.9,-153.2 -68.8,-206.8 -45.8,-53.6 -106.7,-80.4 -182.6,-80.4 -76.5,0 -137.8,26.8 -183.8,80.4 -46.1,53.6 -69.1,122.5 -69.1,206.8 v 17.4"
           style="fill:#100f0d;fill-opacity:1;fill-rule:nonzero;stroke:none"
           id="path1645"
           inkscape:connector-curvature="0" /></g><g
         id="g1647"
         transform="scale(1.36577)"><path
           d="m 16239.2,14963.2 c 0,69.7 -14,126.5 -41.7,170.5 -27.8,44 -68.3,66 -121.8,66 -40.9,0 -74.1,-9.8 -99.6,-29.2 -25.6,-19.5 -44.8,-44.7 -57.6,-75.9 v -263.8 c 13.8,-30.1 33.9,-53.8 60.1,-71 26.2,-17.3 58.9,-25.9 98.2,-25.9 53,0 93.4,20 121,59.9 27.5,39.9 41.4,92.8 41.4,158.8 z m -463.8,233.9 v 45.2 h 133.4 l 7.6,-85.3 c 18.6,30.5 42.4,54 71.3,70.6 28.9,16.5 62.8,24.8 101.7,24.8 66,0 117.5,-26.3 154.8,-78.9 37.2,-52.6 55.8,-122.7 55.8,-210.3 v -10.6 c 0,-82.2 -18.6,-147.8 -55.8,-196.6 -37.3,-48.9 -88.4,-73.3 -153.8,-73.3 -38.5,0 -72.2,7.3 -101.1,22 -29,14.7 -52.6,35.6 -70.8,62.7 V 14534 l 82.7,-6.6 v -45.1 h -225.8 v 45.1 l 82.7,6.6 v 656.5 l -82.7,6.6"
           style="fill:#100f0d;fill-opacity:1;fill-rule:nonzero;stroke:none"
           id="path1649"
           inkscape:connector-curvature="0" /></g><g
         id="g1651"
         transform="scale(1.40837)"><path
           d="m 16289.2,14617 h -48.2 l -6.9,75.2 c -14.8,15.5 -33.4,27.4 -55.9,36 -22.4,8.5 -48.3,12.7 -77.4,12.7 -43,0 -75.2,-9.2 -96.7,-27.7 -21.5,-18.6 -32.3,-40.3 -32.3,-65.2 0,-24.6 9.3,-45 27.9,-61.1 18.5,-16 55.5,-30.1 110.9,-42.3 63.3,-14.1 110.7,-33.3 142.2,-57.8 31.5,-24.4 47.2,-57.6 47.2,-99.6 0,-44.3 -17.9,-80.1 -53.8,-107.5 -35.9,-27.4 -83.4,-41.1 -142.5,-41.1 -39.4,0 -75.2,5.5 -107.5,16.5 -32.3,11 -60.2,26.5 -83.9,46.5 v 107.2 h 47.7 l 8.4,-75.7 c 15.8,-15.8 35.7,-27.2 59.8,-34.2 24.1,-7.1 49.3,-10.6 75.5,-10.6 42.6,0 76.3,9.3 100.9,28 24.6,18.7 36.9,41.4 36.9,67.9 0,25 -10.3,46.8 -30.7,65.5 -20.6,18.7 -57.6,33.9 -111,45.7 -63.4,13.8 -110.3,32.1 -141,54.9 -30.6,22.8 -46,54.7 -46,95.7 0,40.7 17.2,75 51.7,103.1 34.4,28 79.8,42 136.3,42 39,0 74.7,-6 107,-17.9 32.3,-12 58.6,-28.1 78.9,-48.5 l 2.5,-107.7"
           style="fill:#100f0d;fill-opacity:1;fill-rule:nonzero;stroke:none"
           id="path1653"
           inkscape:connector-curvature="0" /></g><g
         id="g1655"
         transform="scale(1.4255)"><path
           d="m 16300,14077.6 h -66.6 v 79.8 h 66.6 v -79.8"
           style="fill:#100f0d;fill-opacity:1;fill-rule:nonzero;stroke:none"
           id="path1657"
           inkscape:connector-curvature="0" /></g><g
         id="g1659"
         transform="scale(1.44531)"><path
           d="m 16300,13884.7 h -65.7 v 78.6 h 65.7 v -78.6"
           style="fill:#100f0d;fill-opacity:1;fill-rule:nonzero;stroke:none"
           id="path1661"
           inkscape:connector-curvature="0" /></g><g
         id="g1663"
         transform="scale(1.46512)"><path
           d="m 16300,13697 h -64.8 v 77.5 h 64.8 v -77.5"
           style="fill:#100f0d;fill-opacity:1;fill-rule:nonzero;stroke:none"
           id="path1665"
           inkscape:connector-curvature="0" /></g><g
         id="g1667"
         transform="scale(1.4611)"><path
           d="m 15669.4,15223.7 -158.3,165.3 179.9,187.9 c 34.3,-45.7 54.6,-102.5 54.6,-163.9 0,-73.4 -29.1,-140.1 -76.2,-189.3 z m -197.5,-84.5 c -57.2,0 -110.3,17.7 -154.3,47.8 l 150.8,157.5 153.6,-160.3 c -43.2,-28.4 -94.8,-45 -150.1,-45 z m -273.8,273.8 c 0,59.6 19.2,114.8 51.7,159.9 l 176,-183.9 -154.8,-161.7 c -45.2,48.8 -72.9,114.1 -72.9,185.7 z m 273.8,273.8 c 67.3,0 129,-24.5 176.7,-65 l -180.2,-188.2 -177,185 c 48.2,42.4 111.3,68.2 180.5,68.2 z m -688.8,-459.5 -154.9,161.7 175.9,183.9 c 32.6,-45.1 51.8,-100.3 51.8,-159.9 0,-71.6 -27.7,-136.9 -72.8,-185.7 z m -201,-88.1 c -55.3,0 -106.9,16.6 -150,45 l 153.4,160.3 150.9,-157.5 c -44,-30.1 -97.1,-47.8 -154.3,-47.8 z m -273.7,273.8 c 0,61.4 20.4,118.2 54.6,163.9 l 179.9,-187.9 -158.2,-165.3 c -47.3,49.2 -76.3,115.9 -76.3,189.3 z m 273.7,273.8 c 69.1,0 132.3,-25.8 180.6,-68.2 l -177.2,-185 -180.2,188.2 c 47.8,40.5 109.5,65 176.8,65 z m 1610.9,-360 -3,1.6 -377.3,114.6 c -15.3,174.7 -162.2,312.2 -340.8,312.2 -177.2,0 -323.3,-135.3 -340.5,-308 h -208.8 c -17.2,172.7 -163.3,308 -340.5,308 -180,0 -327.9,-139.8 -341.1,-316.5 l -363.3,-110.3 -3.1,-1.6 c -4.3,-2.4 -106.9,-59.9 -106.9,-256 h 68.4 c 0,139.1 57.3,186.2 69,194.4 l 337.9,102.6 c 22.2,-167.4 165.8,-297 339.1,-297 177.2,0 323.3,135.3 340.5,308 h 208.8 c 17.2,-172.7 163.3,-308 340.5,-308 174.7,0 319.2,131.7 339.6,301 l 351.1,-106.6 c 11.5,-8.1 69,-55.8 69,-194.4 h 68.4 c 0,196.1 -102.6,253.6 -107,256 z M 15016.7,15129 c -323.2,0 -585.1,-262 -585.1,-585.2 h 1170.3 c 0,323.2 -262,585.2 -585.2,585.2"
           style="fill:#100f0d;fill-opacity:1;fill-rule:nonzero;stroke:none"
           id="path1669"
           inkscape:connector-curvature="0" /></g><g
         id="g1671"
         transform="scale(1.13415)"><path
           d="m 15986.7,14452.7 h 91.5 c 38.8,0 67,7.4 84.6,22.2 17.6,14.8 26.5,36.4 26.5,64.9 0,27 -8.5,48.4 -25.4,64.2 -17,15.7 -43.2,23.6 -78.7,23.6 h -98.5 z m 98.5,229.2 c 55.9,0 98.9,-12.4 128.7,-37.2 29.8,-24.8 44.8,-60 44.8,-105.6 0,-24.9 -6.9,-47 -20.8,-66.3 -13.9,-19.3 -33.7,-34.5 -59.6,-45.5 28,-9.2 48.2,-24.1 60.5,-44.8 12.4,-20.7 18.5,-46.2 18.5,-76.6 v -41.2 c 0,-15.8 2,-27.4 6,-35 4,-7.5 10.6,-11.9 19.8,-13.3 l 16.9,-2.2 v -45.5 h -37.4 c -27.1,0 -46.3,9.4 -57.6,28.3 -11.5,18.8 -17.2,41.6 -17.2,68.4 v 39.8 c 0,28 -8.1,50.5 -24.3,67.4 -16.2,16.9 -38,25.4 -65.2,25.4 h -111.6 v -174.9 l 57.6,-9.9 v -44.5 h -184.5 v 44.5 l 57.4,9.9 v 404.5 l -57.4,9.9 v 44.4 h 57.4 168"
           style="fill:#100f0d;fill-opacity:1;fill-rule:nonzero;stroke:none"
           id="path1673"
           inkscape:connector-curvature="0" /></g><g
         id="g1675"
         transform="scale(1.16175)"><path
           d="m 16034.5,14014.2 c 0,-39.5 8.4,-72.1 25,-97.8 16.6,-25.7 41.4,-38.6 74.2,-38.6 32.1,0 56.6,12.9 73.3,38.6 16.8,25.7 25.2,58.3 25.2,97.8 v 7.6 c 0,39 -8.4,71.5 -25.2,97.4 -16.7,25.9 -41.5,38.9 -74,38.9 -32.6,0 -57.1,-13 -73.7,-38.9 -16.5,-25.9 -24.8,-58.4 -24.8,-97.4 z m -67.8,7.6 c 0,55.1 14.9,100.4 44.8,136.2 29.8,35.6 70.3,53.5 121.5,53.5 51.4,0 92.1,-17.8 122.1,-53.4 29.9,-35.6 44.9,-81 44.9,-136.3 v -7.6 c 0,-55.6 -14.9,-101 -44.8,-136.4 -29.8,-35.3 -70.3,-53 -121.5,-53 -51.6,0 -92.4,17.7 -122.2,53.2 -29.9,35.5 -44.8,80.9 -44.8,136.2 v 7.6"
           style="fill:#100f0d;fill-opacity:1;fill-rule:nonzero;stroke:none"
           id="path1677"
           inkscape:connector-curvature="0" /></g><g
         id="g1679"
         transform="scale(1.19047)"><path
           d="m 16233.5,13673.5 c 0,41.9 -7.6,75.9 -22.9,102.2 -15.2,26.2 -38.4,39.3 -69.9,39.3 -20.3,0 -37.5,-5 -51.5,-14.8 -14,-9.9 -25.2,-23.1 -33.5,-39.7 v -160.6 c 8.3,-16.8 19.6,-30.1 33.8,-40 14.3,-9.8 31.6,-14.8 51.9,-14.8 31.2,0 54.3,11.1 69.4,33.3 15.1,22.2 22.7,51.5 22.7,88 z m 66.5,-7.1 c 0,-52.4 -12.6,-94.7 -37.8,-126.8 -25.2,-32.1 -59.8,-48.2 -104,-48.2 -23.7,0 -44.3,4.5 -61.8,13.6 -17.5,9.1 -32,22.4 -43.7,40.1 l -6,-46.7 h -57.2 v 472.1 l -54.7,9.5 v 42.6 h 120.9 V 13819 c 11.5,16.1 25.6,28.4 42.5,37 17,8.5 36.7,12.7 59.3,12.7 44.9,0 79.8,-17.9 104.9,-53.7 25.1,-35.9 37.6,-83 37.6,-141.5 v -7.1"
           style="fill:#100f0d;fill-opacity:1;fill-rule:nonzero;stroke:none"
           id="path1681"
           inkscape:connector-curvature="0" /></g><g
         id="g1683"
         transform="scale(1.21906)"><path
           d="m 16046.9,13355.4 c 0,-37.6 8,-68.7 23.9,-93.2 15.8,-24.5 39.4,-36.7 70.7,-36.7 30.6,0 53.9,12.2 69.9,36.7 15.9,24.5 24,55.6 24,93.2 v 7.2 c 0,37.2 -8.1,68.2 -24,92.9 -16,24.7 -39.5,37.1 -70.5,37.1 -31.1,0 -54.5,-12.4 -70.3,-37.1 -15.7,-24.7 -23.7,-55.7 -23.7,-92.9 z m -64.5,7.2 c 0,52.5 14.2,95.8 42.6,129.8 28.4,34 67.1,51 115.9,51 48.9,0 87.7,-16.9 116.3,-50.8 28.5,-34 42.8,-77.3 42.8,-130 v -7.2 c 0,-53 -14.3,-96.3 -42.7,-129.9 -28.4,-33.7 -67.1,-50.6 -115.8,-50.6 -49.2,0 -88.1,16.9 -116.5,50.7 -28.4,33.8 -42.6,77.1 -42.6,129.8 v 7.2"
           style="fill:#100f0d;fill-opacity:1;fill-rule:nonzero;stroke:none"
           id="path1685"
           inkscape:connector-curvature="0" /></g><g
         id="g1687"
         transform="scale(1.23818)"><path
           d="m 16217.6,13412.2 v -84.3 h 66.2 v -47.2 h -66.2 v -212.3 c 0,-16.3 3.4,-27.9 10.2,-34.5 6.8,-6.7 15.7,-10.1 27,-10.1 5.5,0 11.8,0.5 18.9,1.5 7,1 12.8,2 17.6,3.1 l 8.7,-43.6 c -6.1,-3.9 -14.9,-7.1 -26.5,-9.6 -11.6,-2.5 -23.3,-3.7 -34.9,-3.7 -25.8,0 -46.4,7.8 -61.7,23.4 -15.3,15.6 -22.9,40.1 -22.9,73.5 v 212.3 h -55.3 v 47.2 h 55.3 v 84.3 h 63.6"
           style="fill:#100f0d;fill-opacity:1;fill-rule:nonzero;stroke:none"
           id="path1689"
           inkscape:connector-curvature="0" /></g><g
         id="g1691"
         transform="scale(1.26517)"><path
           d="m 16056.2,12868.6 c 0,-36.2 7.7,-66.1 23,-89.8 15.2,-23.6 38,-35.4 68.1,-35.4 29.5,0 51.9,11.8 67.3,35.4 15.4,23.7 23.1,53.6 23.1,89.8 v 7 c 0,35.8 -7.7,65.7 -23.1,89.5 -15.4,23.8 -38,35.7 -67.9,35.7 -30,0 -52.5,-11.9 -67.7,-35.7 -15.2,-23.8 -22.8,-53.7 -22.8,-89.5 z m -62.2,7 c 0,50.6 13.6,92.3 41.1,125.1 27.4,32.7 64.5,49.1 111.6,49.1 47.1,0 84.5,-16.3 112,-49 27.5,-32.7 41.3,-74.4 41.3,-125.2 v -7 c 0,-51 -13.7,-92.7 -41.1,-125.2 -27.4,-32.4 -64.6,-48.7 -111.6,-48.7 -47.4,0 -84.8,16.3 -112.2,48.9 -27.5,32.6 -41.1,74.2 -41.1,125 v 7"
           style="fill:#100f0d;fill-opacity:1;fill-rule:nonzero;stroke:none"
           id="path1693"
           inkscape:connector-curvature="0" /></g><g
         id="g1695"
         transform="scale(1.30319)"><path
           d="m 16290.2,12558.6 h -45.4 l -9.9,39.9 c -7.3,7 -16.6,12.5 -27.7,16.7 -11.3,4.2 -23.8,6.3 -38,6.3 -21.4,0 -37.4,-4.7 -47.9,-14.1 -10.5,-9.4 -15.6,-20.8 -15.6,-34.1 0,-13.1 4.5,-23.4 13.8,-31 9.2,-7.5 27.9,-14.3 56.2,-20.2 41.9,-9 73.1,-21.3 93.6,-36.7 20.4,-15.5 30.7,-36.2 30.7,-62.2 0,-29.4 -12,-53.3 -35.8,-71.5 -23.8,-18.2 -55,-27.3 -93.4,-27.3 -25.3,0 -47.8,2.9 -67.9,8.7 -20.1,5.9 -37.9,14.3 -53.7,25.4 l -0.4,75.8 h 45.5 l 11.4,-44.5 c 6.9,-6.4 16.4,-11 28.3,-13.8 12,-2.9 24.3,-4.3 36.8,-4.3 21.5,0 38.3,4.3 50.5,13 12.1,8.7 18.2,20.1 18.2,34.2 0,13.3 -5,24.3 -15.2,32.9 -10.1,8.6 -29.3,16.1 -57.5,22.4 -40.4,8.8 -70.8,20.8 -91.2,35.9 -20.5,15.1 -30.7,35.6 -30.7,61.4 0,27 11.5,50 34.6,69.1 23,19 52.9,28.5 89.7,28.5 25.2,0 47.8,-3.3 67.9,-9.8 20,-6.6 36.7,-15.7 50,-27.3 l 3.1,-73.4"
           style="fill:#100f0d;fill-opacity:1;fill-rule:nonzero;stroke:none"
           id="path1697"
           inkscape:connector-curvature="0" /></g><g
         id="g1699"
         transform="scale(1.31988)"><path
           d="m 16141.5,12609.3 v 38.5 h 109.1 v -426.2 l 49.4,-8.5 v -38.2 h -158.5 v 38.2 l 49.4,8.5 v 379.2 l -49.4,8.5"
           style="fill:#100f0d;fill-opacity:1;fill-rule:nonzero;stroke:none"
           id="path1701"
           inkscape:connector-curvature="0" /></g><g
         id="g1703"
         transform="scale(1.34719)"><path
           d="m 16129.3,11970.9 c 19.3,0 37.1,4.6 53.1,13.9 16.1,9.3 27.6,20.5 34.5,33.6 v 52.8 h -62.4 c -24,0 -42.9,-5.5 -56.8,-16.6 -14,-11.1 -21,-24.5 -21,-40.4 0,-14 4.4,-24.8 13.1,-32.2 8.7,-7.4 21.8,-11.1 39.5,-11.1 z m 94.1,-42.8 c -1.8,8.7 -3.2,16.5 -4.2,23.5 -0.9,6.9 -1.7,13.8 -2,20.8 -11.3,-14.5 -25.4,-26.5 -42.3,-36.1 -17,-9.6 -35,-14.4 -54.2,-14.4 -33.5,0 -58.9,8.1 -76.3,24.5 -17.5,16.3 -26.2,39.3 -26.2,69 0,30.5 12.4,54 37,70.5 24.6,16.6 58.4,24.8 101.4,24.8 h 60.3 v 37.4 c 0,18.8 -6,33.7 -17.8,44.7 -11.9,11 -28.5,16.5 -49.6,16.5 -14.7,0 -27.6,-1.9 -38.8,-5.6 -11.2,-3.8 -20.2,-8.9 -27.1,-15.5 l -6.3,-33.8 h -45.1 v 62.3 c 14.6,11.7 32.3,21.1 53.1,28.1 20.8,7 43.4,10.5 67.7,10.5 36.5,0 65.9,-9.3 88.5,-27.9 22.6,-18.6 33.9,-45.2 33.9,-79.9 v -154.7 c 0,-4.1 0,-8.2 0.1,-12.1 0.1,-4 0.4,-8 0.7,-11.9 l 23.8,-3.3 v -37.4 h -76.6"
           style="fill:#100f0d;fill-opacity:1;fill-rule:nonzero;stroke:none"
           id="path1705"
           inkscape:connector-curvature="0" /></g><g
         id="g1707"
         transform="scale(1.37551)"><path
           d="m 16242.4,11834.1 c 0,36.2 -6.5,65.7 -19.8,88.4 -13.1,22.6 -33.2,34 -60.4,34 -17.6,0 -32.5,-4.3 -44.7,-12.8 -12,-8.5 -21.7,-20 -28.9,-34.3 v -139 c 7.2,-14.6 16.9,-26.1 29.2,-34.6 12.4,-8.6 27.3,-12.8 44.9,-12.8 27,0 47,9.6 60.1,28.7 13.1,19.2 19.6,44.6 19.6,76.2 z m 57.6,-6.2 c 0,-45.3 -10.9,-81.9 -32.7,-109.7 -21.8,-27.9 -51.8,-41.8 -90,-41.8 -20.5,0 -38.4,4 -53.5,11.8 -15.1,7.9 -27.7,19.4 -37.8,34.8 l -5.3,-40.5 h -49.4 v 408.6 l -47.4,8.2 v 36.9 h 104.7 V 11960 c 9.9,13.9 22.2,24.6 36.8,32 14.7,7.3 31.7,11 51.3,11 38.8,0 69.1,-15.5 90.7,-46.5 21.8,-31 32.6,-71.8 32.6,-122.4 v -6.2"
           style="fill:#100f0d;fill-opacity:1;fill-rule:nonzero;stroke:none"
           id="path1709"
           inkscape:connector-curvature="0" /></g><g
         id="g1711"
         transform="scale(1.423)"><path
           d="m 16050.4,11518.9 h 72.8 c 30.9,0 53.4,5.9 67.5,17.8 14,11.8 21,29 21,51.7 0,21.5 -6.7,38.6 -20.2,51.1 -13.5,12.6 -34.4,18.9 -62.7,18.9 h -78.4 z m 78.4,182.8 c 44.6,0 78.8,-9.9 102.6,-29.7 23.8,-19.8 35.7,-47.8 35.7,-84.2 0,-19.9 -5.5,-37.5 -16.6,-52.8 -11,-15.4 -26.9,-27.5 -47.5,-36.3 22.3,-7.3 38.4,-19.2 48.2,-35.7 9.9,-16.5 14.8,-36.8 14.8,-61 v -32.9 c 0,-12.6 1.6,-21.8 4.8,-27.8 3.1,-6 8.4,-9.6 15.7,-10.7 l 13.5,-1.7 v -36.3 h -29.8 c -21.6,0 -36.9,7.5 -46,22.5 -9,15 -13.6,33.2 -13.6,54.6 v 31.7 c 0,22.3 -6.5,40.2 -19.4,53.7 -12.9,13.5 -30.3,20.3 -52,20.3 h -88.8 v -139.5 l 45.8,-7.8 v -35.5 h -147 v 35.5 l 45.8,7.8 v 322.5 l -45.8,7.8 v 35.5 h 45.8 133.8"
           style="fill:#100f0d;fill-opacity:1;fill-rule:nonzero;stroke:none"
           id="path1713"
           inkscape:connector-curvature="0" /></g><g
         id="g1715"
         transform="scale(1.44909)"><path
           d="m 16177.7,11350.8 c -18.2,0 -33.7,-7.7 -46.6,-23.1 -12.9,-15.3 -20.8,-34.6 -23.8,-57.8 l 0.6,-1.4 h 137.7 v 7.2 c 0,21.3 -5.6,39.2 -17.1,53.5 -11.4,14.4 -28.4,21.6 -50.8,21.6 z m 8.3,-267.2 c -41.6,0 -74.7,13.8 -99.2,41.5 -24.6,27.7 -36.9,63.6 -36.9,107.8 v 12.2 c 0,42.5 12.6,77.8 38,106.1 25.3,28.2 55.2,42.4 89.8,42.4 40.2,0 70.5,-12.2 91.2,-36.5 20.7,-24.3 31.1,-56.7 31.1,-97.1 v -34 h -193.8 l -0.8,-1.4 c 0.5,-28.7 7.9,-52.3 21.8,-70.8 14,-18.5 33.6,-27.7 58.8,-27.7 18.4,0 34.6,2.6 48.4,7.8 14,5.3 26,12.5 36.1,21.7 l 21.2,-35.3 c -10.6,-10.3 -24.8,-19 -42.4,-26.1 -17.5,-7.1 -38.7,-10.6 -63.3,-10.6"
           style="fill:#100f0d;fill-opacity:1;fill-rule:nonzero;stroke:none"
           id="path1717"
           inkscape:connector-curvature="0" /></g><g
         id="g1719"
         transform="scale(1.47648)"><path
           d="m 16103.8,11019.1 c 0,-29.5 6.2,-53.1 18.8,-71 12.3,-17.9 31.3,-26.8 56.8,-26.8 16.1,0 29.5,3.6 40.3,11 10.9,7.3 19.9,17.6 26.9,31 v 134.9 c -6.9,12.5 -15.8,22.4 -26.9,29.7 -10.9,7.3 -24.2,10.9 -39.7,10.9 -25.6,0 -44.6,-10.6 -57.2,-31.9 -12.6,-21.3 -19,-48.7 -19,-82.1 z m -53.4,5.7 c 0,47.1 10.3,85.1 30.9,114 20.6,28.9 49.1,43.4 85.3,43.4 18.5,0 34.7,-3.6 48.5,-10.8 14,-7.3 25.6,-17.8 35,-31.5 l 4.9,36.9 h 45 v -289.4 c 0,-37.9 -10.6,-67.8 -31.7,-89.5 -21.1,-21.8 -51.2,-32.7 -90.3,-32.7 -14.1,0 -29.3,2 -45.8,5.8 -16.4,3.9 -30.8,9.2 -43.3,15.9 l 13.8,41.5 c 10,-5.3 21.7,-9.6 35.2,-13.1 13.6,-3.4 26.8,-5.1 39.6,-5.1 23.9,0 41.4,6.7 52.5,20 11.1,13.4 16.6,32.5 16.6,57.2 v 27.9 c -9.6,-12.3 -21,-21.6 -34.4,-27.9 -13.4,-6.3 -28.7,-9.5 -46.1,-9.5 -35.9,0 -64.2,13 -84.8,39 -20.6,26.1 -30.9,60.1 -30.9,102.2 v 5.7"
           style="fill:#100f0d;fill-opacity:1;fill-rule:nonzero;stroke:none"
           id="path1721"
           inkscape:connector-curvature="0" /></g><g
         id="g1723"
         transform="scale(1.50899)"><path
           d="m 16216.8,10691.5 c -9,-15.4 -20.7,-27.2 -34.9,-35.5 -14.2,-8.3 -30.6,-12.5 -49.2,-12.5 -31.1,0 -55.4,10 -72.9,30 -17.5,20 -26.2,51.1 -26.2,93.3 v 128 l -32.9,7.5 v 33.6 h 32.9 52.2 v -169.6 c 0,-30.6 4.5,-51.6 13.5,-63.1 9,-11.5 23.1,-17.2 42.2,-17.2 18.5,0 33.8,3.7 46,11.2 12.1,7.5 21.2,18.2 27.4,32 v 165.6 l -38.4,7.5 v 33.6 h 38.4 52.2 v -246 l 32.9,-7.4 v -33.4 h -79.8 l -3.4,42.4"
           style="fill:#100f0d;fill-opacity:1;fill-rule:nonzero;stroke:none"
           id="path1725"
           inkscape:connector-curvature="0" /></g><g
         id="g1727"
         transform="scale(1.52499)"><path
           d="m 16162.8,10913.3 v 33.3 h 94.4 v -368.8 l 42.8,-7.4 v -33 h -137.2 v 33 l 42.8,7.4 v 328.1 l -42.8,7.4"
           style="fill:#100f0d;fill-opacity:1;fill-rule:nonzero;stroke:none"
           id="path1729"
           inkscape:connector-curvature="0" /></g><g
         id="g1731"
         transform="scale(1.55231)"><path
           d="m 16151.8,10389.1 c 16.9,0 32.2,4 46.2,12.1 13.9,8.1 23.9,17.8 29.8,29.1 v 45.9 h -54.1 c -20.7,0 -37.2,-4.8 -49.3,-14.5 -12.1,-9.6 -18.2,-21.3 -18.2,-35 0,-12.2 3.8,-21.5 11.4,-28 7.6,-6.4 19,-9.6 34.2,-9.6 z m 81.7,-37.1 c -1.5,7.5 -2.7,14.3 -3.6,20.3 -0.8,6 -1.4,12.1 -1.8,18.1 -9.8,-12.6 -22,-23 -36.7,-31.3 -14.7,-8.4 -30.4,-12.5 -47,-12.5 -29,0 -51.1,7 -66.3,21.2 -15.1,14.2 -22.6,34.2 -22.6,59.9 0,26.5 10.7,46.9 32,61.2 21.4,14.4 50.8,21.6 88,21.6 h 52.3 v 32.4 c 0,16.3 -5.1,29.3 -15.4,38.8 -10.3,9.5 -24.6,14.3 -43,14.3 -12.7,0 -23.9,-1.6 -33.7,-4.9 -9.6,-3.3 -17.5,-7.7 -23.6,-13.4 l -5.4,-29.4 h -39.1 v 54.2 c 12.7,10.1 28.1,18.2 46.1,24.3 18,6.1 37.6,9.2 58.7,9.2 31.7,0 57.3,-8.1 76.8,-24.3 19.6,-16.1 29.4,-39.2 29.4,-69.3 v -134.3 c 0,-3.6 0.1,-7.1 0.1,-10.5 0.2,-3.5 0.4,-6.9 0.7,-10.3 l 20.6,-2.9 v -32.4 h -66.5"
           style="fill:#100f0d;fill-opacity:1;fill-rule:nonzero;stroke:none"
           id="path1733"
           inkscape:connector-curvature="0" /></g><g
         id="g1735"
         transform="scale(1.57379)"><path
           d="m 16119.2,10453.4 v 32.3 h 86.2 l 4.8,-39.9 c 7.8,14.1 17.4,25.1 28.9,33.1 11.5,7.9 24.6,11.9 39.3,11.9 3.9,0 7.9,-0.3 12.1,-0.9 4.1,-0.6 7.3,-1.2 9.5,-1.9 l -6.6,-46.5 -28.5,1.5 c -13.2,0 -24.3,-3.1 -33.3,-9.3 -9,-6.2 -15.9,-14.8 -20.9,-26 v -157.9 l 41.5,-7.1 v -32 h -133 v 32 l 41.5,7.1 v 196.5 l -41.5,7.1"
           style="fill:#100f0d;fill-opacity:1;fill-rule:nonzero;stroke:none"
           id="path1737"
           inkscape:connector-curvature="0" /></g><g
         id="g1739"
         transform="scale(1.16387)"><path
           d="m 15994.8,12974.7 h 89 c 37.8,0 65.3,7.2 82.5,21.6 17.2,14.4 25.8,35.5 25.8,63.2 0,26.4 -8.3,47.2 -24.8,62.6 -16.5,15.3 -42,23 -76.6,23 h -95.9 z m 95.9,223.4 c 54.6,0 96.3,-12.1 125.4,-36.3 29.2,-24.2 43.7,-58.5 43.7,-102.9 0,-24.3 -6.8,-45.9 -20.3,-64.7 -13.5,-18.8 -32.9,-33.5 -58.1,-44.3 27.3,-8.9 46.9,-23.5 59,-43.6 12,-20.2 18,-45.1 18,-74.6 v -40.2 c 0,-15.4 2,-26.7 5.9,-34.1 3.8,-7.3 10.3,-11.7 19.2,-13 l 16.5,-2.1 v -44.3 h -36.4 c -26.4,0 -45.1,9.1 -56.2,27.5 -11.1,18.3 -16.7,40.5 -16.7,66.6 v 38.9 c 0,27.2 -7.9,49.1 -23.7,65.6 -15.8,16.5 -37,24.8 -63.6,24.8 h -108.6 v -170.5 l 56,-9.6 v -43.3 h -179.7 v 43.3 l 56,9.6 v 394.2 l -56,9.7 v 43.3 h 56 163.6"
           style="fill:#100f0d;fill-opacity:1;fill-rule:nonzero;stroke:none"
           id="path1741"
           inkscape:connector-curvature="0" /></g><g
         id="g1743"
         transform="scale(1.19147)"><path
           d="m 16041.2,12581.4 c 0,-38.5 8.1,-70.3 24.3,-95.4 16.3,-25.1 40.4,-37.6 72.3,-37.6 31.4,0 55.3,12.5 71.6,37.6 16.3,25.1 24.5,56.9 24.5,95.4 v 7.3 c 0,38.1 -8.2,69.8 -24.5,95.1 -16.3,25.2 -40.4,37.9 -72.2,37.9 -31.7,0 -55.8,-12.7 -71.9,-37.9 -16.1,-25.3 -24.1,-57 -24.1,-95.1 z m -66.2,7.3 c 0,53.7 14.5,98 43.7,132.8 29.1,34.8 68.6,52.2 118.5,52.2 50.2,0 89.8,-17.3 119,-52 29.2,-34.7 43.8,-79 43.8,-133 v -7.3 c 0,-54.2 -14.5,-98.5 -43.6,-133 -29.1,-34.5 -68.6,-51.7 -118.6,-51.7 -50.3,0 -90,17.3 -119.1,51.9 -29.2,34.6 -43.7,78.8 -43.7,132.8 v 7.3"
           style="fill:#100f0d;fill-opacity:1;fill-rule:nonzero;stroke:none"
           id="path1745"
           inkscape:connector-curvature="0" /></g><g
         id="g1747"
         transform="scale(1.22019)"><path
           d="m 16235.1,12282.6 c 0,40.9 -7.5,74.1 -22.3,99.7 -14.9,25.6 -37.6,38.3 -68.2,38.3 -19.9,0 -36.7,-4.8 -50.3,-14.4 -13.7,-9.6 -24.6,-22.5 -32.6,-38.7 v -156.7 c 8,-16.4 19,-29.4 32.9,-39 13.9,-9.6 30.8,-14.4 50.7,-14.4 30.3,0 52.9,10.8 67.7,32.4 14.7,21.7 22.1,50.3 22.1,85.9 z m 64.9,-6.9 c 0,-51.1 -12.3,-92.4 -36.9,-123.7 -24.6,-31.4 -58.4,-47.1 -101.4,-47.1 -23.2,0 -43.3,4.5 -60.4,13.3 -17,8.9 -31.3,21.9 -42.7,39.2 l -5.8,-45.6 h -55.7 v 460.6 l -53.5,9.2 v 41.6 h 118.1 v -198.6 c 11.1,15.7 24.9,27.7 41.4,36 16.5,8.3 35.8,12.5 57.9,12.5 43.7,0 77.8,-17.5 102.3,-52.5 24.4,-34.9 36.7,-80.9 36.7,-138 v -6.9"
           style="fill:#100f0d;fill-opacity:1;fill-rule:nonzero;stroke:none"
           id="path1749"
           inkscape:connector-curvature="0" /></g><g
         id="g1751"
         transform="scale(1.24878)"><path
           d="m 16053,12004 c 0,-36.7 7.7,-67.1 23.3,-91 15.4,-23.9 38.5,-35.9 69,-35.9 29.9,0 52.6,12 68.2,35.9 15.6,23.9 23.4,54.3 23.4,91 v 7 c 0,36.3 -7.8,66.6 -23.4,90.7 -15.6,24.1 -38.5,36.2 -68.9,36.2 -30.3,0 -53.1,-12.1 -68.5,-36.2 -15.4,-24.1 -23.1,-54.4 -23.1,-90.7 z m -63.1,7 c 0,51.3 13.9,93.5 41.7,126.7 27.8,33.2 65.4,49.8 113,49.8 47.9,0 85.7,-16.5 113.6,-49.6 27.9,-33.1 41.8,-75.4 41.8,-126.9 v -7 c 0,-51.7 -13.9,-94 -41.6,-126.9 -27.8,-32.9 -65.5,-49.3 -113.1,-49.3 -48.1,0 -85.9,16.5 -113.7,49.5 -27.8,33 -41.7,75.2 -41.7,126.7 v 7"
           style="fill:#100f0d;fill-opacity:1;fill-rule:nonzero;stroke:none"
           id="path1753"
           inkscape:connector-curvature="0" /></g><g
         id="g1755"
         transform="scale(1.2679)"><path
           d="m 16219.6,12079.8 v -82.3 h 64.6 v -46.1 h -64.6 v -207.3 c 0,-16 3.3,-27.2 9.9,-33.7 6.6,-6.5 15.4,-9.8 26.3,-9.8 5.6,0 11.6,0.5 18.5,1.4 6.9,1 12.6,1.9 17.2,3 l 8.5,-42.6 c -5.8,-3.8 -14.5,-6.9 -25.9,-9.3 -11.3,-2.4 -22.7,-3.6 -34,-3.6 -25.3,0 -45.4,7.6 -60.3,22.9 -14.9,15.2 -22.4,39.1 -22.4,71.7 v 207.3 h -53.9 v 46.1 h 53.9 v 82.3 h 62.2"
           style="fill:#100f0d;fill-opacity:1;fill-rule:nonzero;stroke:none"
           id="path1757"
           inkscape:connector-curvature="0" /></g><g
         id="g1759"
         transform="scale(1.2949)"><path
           d="m 16061.8,11576.5 c 0,-35.4 7.4,-64.7 22.4,-87.8 14.9,-23 37.1,-34.6 66.6,-34.6 28.8,0 50.7,11.6 65.8,34.6 15,23.1 22.5,52.4 22.5,87.8 v 6.8 c 0,35 -7.5,64.1 -22.5,87.4 -15.1,23.3 -37.2,34.9 -66.4,34.9 -29.3,0 -51.4,-11.6 -66.2,-34.9 -14.8,-23.3 -22.2,-52.4 -22.2,-87.4 z m -60.9,6.8 c 0,49.4 13.4,90.1 40.2,122.2 26.8,32 63.1,48 109.1,48 46.1,0 82.5,-16 109.5,-47.9 26.9,-31.9 40.3,-72.7 40.3,-122.3 v -6.8 c 0,-49.9 -13.4,-90.6 -40.2,-122.4 -26.8,-31.7 -63.1,-47.5 -109,-47.5 -46.4,0 -82.9,15.9 -109.7,47.7 -26.8,31.8 -40.2,72.5 -40.2,122.2 v 6.8"
           style="fill:#100f0d;fill-opacity:1;fill-rule:nonzero;stroke:none"
           id="path1761"
           inkscape:connector-curvature="0" /></g><g
         id="g1763"
         transform="scale(1.33291)"><path
           d="m 16290.4,11310.3 h -44.4 l -9.6,39 c -7.2,6.8 -16.3,12.2 -27.2,16.3 -10.9,4.1 -23.2,6.2 -37,6.2 -21,0 -36.7,-4.6 -46.9,-13.8 -10.2,-9.2 -15.3,-20.3 -15.3,-33.3 0,-12.8 4.5,-22.9 13.5,-30.3 9,-7.4 27.4,-14 55,-19.8 41,-8.9 71.5,-20.8 91.5,-35.9 20,-15.1 30,-35.4 30,-60.8 0,-28.8 -11.6,-52.1 -35,-69.9 -23.3,-17.8 -53.8,-26.7 -91.3,-26.7 -24.6,0 -46.8,2.8 -66.4,8.5 -19.6,5.7 -37.1,14 -52.5,24.8 l -0.3,74.1 h 44.4 l 11.1,-43.5 c 6.8,-6.2 16.1,-10.7 27.8,-13.5 11.7,-2.8 23.6,-4.2 35.9,-4.2 21,0 37.4,4.2 49.3,12.8 11.9,8.5 17.9,19.6 17.9,33.4 0,13 -5,23.7 -14.9,32.1 -9.9,8.4 -28.6,15.7 -56.2,21.9 -39.4,8.6 -69.2,20.3 -89.2,35.1 -20,14.9 -30,34.9 -30,60.1 0,26.4 11.3,48.9 33.8,67.5 22.5,18.6 51.7,27.9 87.8,27.9 24.6,0 46.7,-3.2 66.3,-9.6 19.6,-6.4 35.9,-15.3 48.9,-26.7 l 3,-71.7"
           style="fill:#100f0d;fill-opacity:1;fill-rule:nonzero;stroke:none"
           id="path1765"
           inkscape:connector-curvature="0" /></g><g
         id="g1767"
         transform="scale(1.3496)"><path
           d="m 16145,11375.2 v 37.7 h 106.7 v -416.8 l 48.3,-8.3 v -37.3 h -155 v 37.3 l 48.3,8.3 v 370.8 l -48.3,8.3"
           style="fill:#100f0d;fill-opacity:1;fill-rule:nonzero;stroke:none"
           id="path1769"
           inkscape:connector-curvature="0" /></g><g
         id="g1771"
         transform="scale(1.37691)"><path
           d="m 16132.9,10775.1 c 19,0 36.3,4.5 52,13.6 15.7,9.1 26.9,20 33.7,32.8 v 51.7 h -61 c -23.4,0 -42,-5.4 -55.7,-16.2 -13.6,-10.9 -20.4,-24 -20.4,-39.5 0,-13.8 4.3,-24.3 12.7,-31.5 8.6,-7.3 21.5,-10.9 38.7,-10.9 z m 92.1,-41.9 c -1.8,8.5 -3.1,16.2 -4.1,23 -0.9,6.8 -1.6,13.5 -2,20.3 -11.1,-14.1 -24.9,-25.9 -41.4,-35.3 -16.6,-9.4 -34.2,-14.1 -53,-14.1 -32.7,0 -57.6,8 -74.7,24 -17.1,16 -25.6,38.5 -25.6,67.5 0,29.9 12.1,52.9 36.2,69 24.1,16.2 57.2,24.3 99.2,24.3 h 59 v 36.6 c 0,18.4 -5.8,33 -17.4,43.7 -11.7,10.8 -27.8,16.1 -48.6,16.1 -14.3,0 -26.9,-1.8 -37.9,-5.5 -10.9,-3.7 -19.7,-8.7 -26.6,-15.1 l -6.1,-33.1 h -44.1 v 61 c 14.4,11.4 31.7,20.6 52,27.5 20.3,6.8 42.4,10.3 66.2,10.3 35.7,0 64.5,-9.1 86.6,-27.3 22.1,-18.2 33.1,-44.3 33.1,-78.2 v -151.3 c 0,-4.1 0.1,-8.1 0.2,-12 0.1,-3.8 0.3,-7.7 0.7,-11.6 l 23.3,-3.2 v -36.6 h -75"
           style="fill:#100f0d;fill-opacity:1;fill-rule:nonzero;stroke:none"
           id="path1773"
           inkscape:connector-curvature="0" /></g><g
         id="g1775"
         transform="scale(1.40523)"><path
           d="m 16243.6,10665.2 c 0,35.5 -6.4,64.4 -19.3,86.6 -13,22.2 -32.7,33.3 -59.2,33.3 -17.3,0 -31.9,-4.2 -43.7,-12.6 -11.9,-8.3 -21.4,-19.5 -28.3,-33.5 v -136.1 c 6.9,-14.3 16.5,-25.5 28.6,-33.9 12,-8.3 26.7,-12.5 43.9,-12.5 26.4,0 46,9.4 58.8,28.2 12.8,18.8 19.2,43.6 19.2,74.6 z m 56.4,-5.9 c 0,-44.5 -10.7,-80.3 -32,-107.5 -21.4,-27.2 -50.8,-40.9 -88.1,-40.9 -20.2,0 -37.6,3.9 -52.4,11.6 -14.8,7.7 -27.2,19 -37,34 l -5.1,-39.6 h -48.5 v 400 l -46.4,7.9 v 36.2 h 102.6 v -172.5 c 9.6,13.6 21.6,24.1 36,31.3 14.3,7.2 31,10.8 50.2,10.8 37.9,0 67.5,-15.2 88.8,-45.5 21.2,-30.4 31.9,-70.3 31.9,-119.9 v -5.9"
           style="fill:#100f0d;fill-opacity:1;fill-rule:nonzero;stroke:none"
           id="path1777"
           inkscape:connector-curvature="0" /></g><g
         id="g1779"
         transform="scale(1.44783)"><path
           d="m 16010.2,10207.5 v 34.8 l 45,7.7 v 316.9 l -45,7.8 v 35.1 h 45 54.4 45.1 v -35.1 l -45.1,-7.8 V 10250 h 139.8 l 4.2,46.2 h 46.4 v -88.7 h -289.8"
           style="fill:#100f0d;fill-opacity:1;fill-rule:nonzero;stroke:none"
           id="path1781"
           inkscape:connector-curvature="0" /></g><g
         id="g1783"
         transform="scale(1.4648)"><path
           d="m 16255.4,10460.4 h -53.8 v 54.9 h 53.8 z m -98.3,-336.7 44.5,7.6 v 211.1 l -44.5,7.7 v 34.6 h 98.3 v -253.4 l 44.6,-7.6 v -34.4 h -142.9 v 34.4"
           style="fill:#100f0d;fill-opacity:1;fill-rule:nonzero;stroke:none"
           id="path1785"
           inkscape:connector-curvature="0" /></g><g
         id="g1787"
         transform="scale(1.4911)"><path
           d="m 16105.8,10045.4 c 0,-29.2 6.2,-52.59 18.5,-70.29 12.3,-17.7 31.1,-26.56 56.3,-26.56 15.9,0 29.3,3.63 40,10.87 10.7,7.24 19.6,17.47 26.6,30.71 v 133.57 c -6.9,12.4 -15.7,22.2 -26.6,29.4 -10.9,7.3 -24.1,10.9 -39.4,10.9 -25.3,0 -44.2,-10.6 -56.6,-31.7 -12.6,-21.1 -18.8,-48.2 -18.8,-81.3 z m -52.9,5.6 c 0,46.7 10.2,84.4 30.6,113 20.4,28.6 48.6,42.9 84.5,42.9 18.3,0 34.2,-3.6 48,-10.7 13.8,-7.2 25.3,-17.6 34.6,-31.1 l 4.9,36.4 h 44.5 v -286.48 c 0,-37.57 -10.5,-67.12 -31.4,-88.66 -20.9,-21.55 -50.7,-32.34 -89.3,-32.34 -14,0 -29.1,1.94 -45.3,5.76 -16.3,3.89 -30.6,9.06 -43,15.7 l 13.7,41.05 c 9.8,-5.19 21.5,-9.48 34.9,-12.87 13.4,-3.4 26.4,-5.1 39.1,-5.1 23.7,0 41,6.62 52,19.85 11,13.24 16.5,32.1 16.5,56.61 v 27.62 c -9.6,-12.16 -20.9,-21.37 -34.1,-27.62 -13.3,-6.26 -28.5,-9.39 -45.6,-9.39 -35.6,0 -63.6,12.87 -84,38.63 -20.4,25.76 -30.6,59.44 -30.6,101.14 v 5.6"
           style="fill:#100f0d;fill-opacity:1;fill-rule:nonzero;stroke:none"
           id="path1789"
           inkscape:connector-curvature="0" /></g><g
         id="g1791"
         transform="scale(1.52585)"><path
           d="m 15983.8,9718.58 42.8,7.34 v 327.98 l -42.8,7.3 v 33.3 h 94.4 v -163.04 c 9.8,13.64 21.8,24.21 35.9,31.72 14.2,7.52 29.9,11.28 47.2,11.28 30.4,0 54,-9.09 70.8,-27.27 16.8,-18.18 25.2,-46.14 25.2,-83.89 v -137.38 l 42.7,-7.34 v -33.03 h -137.1 v 33.03 l 42.7,7.34 v 137.9 c 0,23.42 -5,40.73 -15,51.91 -10.1,11.18 -25.1,16.78 -45,16.78 -14.2,0 -27.1,-3.37 -38.7,-10.09 -11.6,-6.74 -21.1,-15.86 -28.7,-27.39 v -169.11 l 42.8,-7.34 v -33.03 h -137.2 v 33.03"
           style="fill:#100f0d;fill-opacity:1;fill-rule:nonzero;stroke:none"
           id="path1793"
           inkscape:connector-curvature="0" /></g><g
         id="g1795"
         transform="scale(1.54406)"><path
           d="m 16233.9,9919.27 v -67.62 h 53.1 v -37.83 h -53.1 v -170.21 c 0,-13.13 2.8,-22.37 8.2,-27.72 5.4,-5.35 12.7,-8.03 21.6,-8.03 4.6,0 9.6,0.39 15.2,1.16 5.6,0.78 10.3,1.59 14.1,2.46 l 7,-34.96 c -4.8,-3.12 -11.9,-5.66 -21.2,-7.65 -9.4,-1.98 -18.7,-2.98 -28,-2.98 -20.7,0 -37.3,6.26 -49.5,18.79 -12.2,12.51 -18.4,32.16 -18.4,58.93 v 170.21 h -44.3 v 37.83 h 44.3 v 67.62 h 51"
           style="fill:#100f0d;fill-opacity:1;fill-rule:nonzero;stroke:none"
           id="path1797"
           inkscape:connector-curvature="0" /></g><g
         id="g1799"
         transform="scale(1.07773)"><path
           d="m 4696.44,14774.7 h 164.69 v -417.5 H 4128 l -395.5,341.2 -48.5,-56.2 416.4,-359.3 h 834.96 v 491.8 h 150.78 v 74.2 h -389.7 z m -802.18,655.2 -172.27,179.9 172.27,179.9 c 38.92,-49.6 62.19,-112.1 62.19,-179.9 0,-67.8 -23.27,-130.3 -62.19,-179.9 z m -230.09,-112.4 c -63.27,0 -121.86,20.3 -169.76,54.6 l 169.76,177.3 169.78,-177.3 c -47.9,-34.3 -106.49,-54.6 -169.78,-54.6 z m -292.28,292.3 c 0,67.8 23.29,130.3 62.21,179.9 l 172.27,-179.9 -172.27,-179.9 c -38.92,49.6 -62.21,112.1 -62.21,179.9 z m 292.28,292.3 c 63.29,0 121.88,-20.3 169.78,-54.6 l -169.78,-177.3 -169.76,177.3 c 47.9,34.3 106.49,54.6 169.76,54.6 z m 1271.19,-844.4 v 561.4 h -895.63 c -4.95,202.9 -171.45,366.5 -375.56,366.5 -204.09,0 -370.59,-163.6 -375.54,-366.5 h -589.45 v -1336.2 h 937.16 v 74.3 h -862.93 v 1187.6 h 520.72 c 30.87,-176.3 185,-310.8 370.04,-310.8 185.06,0 339.19,134.5 370.06,310.8 h 826.9 v -487.1 h -313.15 v -74.2 h 686.62 v 74.2 z m -2858.3,-255.1 72.09,-0.1 6.08,71.2 138.22,-0.2 -0.75,-489.3 -69.56,-11.8 -0.09,-53.8 223.11,-0.3 0.09,53.7 -69.51,12.1 0.75,489.3 137.79,-0.2 6.29,-71.3 71.67,-0.1 0.22,137.4 -516.19,0.8 z m 366.42,247 -69.51,12 0.75,489.3 69.56,11.9 0.09,54.2 -223.11,0.3 -0.09,-54.2 69.51,-12 -0.75,-489.3 -69.56,-11.9 -0.08,-53.7 223.11,-0.4 z m 2106.24,936.2 c 0.12,71.9 16.63,130.8 49.55,176.5 32.92,45.7 78.66,68.6 137.25,68.5 61.15,-0.1 108.96,-23 143.45,-68.7 34.49,-45.7 51.68,-104.7 51.56,-176.9 l -0.01,-9.8 c -0.12,-73.1 -17.28,-132.4 -51.47,-177.8 -34.2,-45.5 -82.3,-68.2 -144.3,-68.1 -58.59,0.1 -104.27,23 -137.06,68.7 -32.77,45.7 -49.1,105 -48.98,177.7 z m -84.05,-9.7 c -0.14,-90.5 24.76,-165.6 74.73,-225.4 49.96,-59.8 115.04,-89.7 195.24,-89.9 82.48,-0.1 149.71,29.7 201.7,89.3 52,59.7 78.06,134.7 78.21,225.1 l 0.01,9 c 0.15,90.1 -25.7,165.3 -77.5,225.4 -51.82,60 -118.96,90.1 -201.44,90.3 -80.19,0.1 -145.37,-29.8 -195.51,-89.7 -50.15,-60 -75.29,-135 -75.44,-225.2 z m -435.96,249.8 138.22,-0.2 -0.75,-489.3 -69.56,-11.9 -0.08,-53.7 223.1,-0.4 0.09,53.8 -69.5,12 0.75,489.4 137.79,-0.3 6.28,-71.2 71.68,-0.1 0.21,137.3 -516.18,0.8 -0.22,-137.3 72.1,-0.1 z m -1175.99,1.6 119.02,-0.2 c 42.94,-0.1 74.65,-9.6 95.09,-28.7 20.45,-19.1 30.65,-45 30.59,-77.7 -0.06,-34.4 -10.75,-60.6 -32.1,-78.5 -21.36,-17.8 -55.52,-26.8 -102.43,-26.7 l -110.49,0.2 z m -84.8,-489.2 -69.54,-11.8 -0.09,-53.8 223.1,-0.3 0.09,53.7 -69.51,12.1 0.33,211.6 134.8,-0.2 c 32.99,-0.1 59.28,-10.4 78.87,-30.9 19.58,-20.5 29.35,-47.7 29.31,-81.5 l -0.08,-48.2 c -0.04,-32.4 6.8,-60 20.56,-82.8 13.76,-22.8 36.99,-34.2 69.7,-34.2 l 45.21,-0.1 0.1,55 -20.48,2.6 c -11.09,1.7 -19.05,7.2 -23.86,16.3 -4.83,9.1 -7.22,23.2 -7.19,42.2 l 0.09,49.9 c 0.05,36.7 -7.37,67.6 -22.27,92.6 -14.89,25.1 -39.25,43.2 -73.07,54.3 31.3,13.3 55.35,31.7 72.18,54.9 16.81,23.3 25.25,50.1 25.29,80.2 0.08,55.2 -17.91,97.8 -53.98,127.8 -36.07,30.1 -87.96,45.2 -155.64,45.3 l -203.06,0.3 -69.53,0.1 -0.08,-53.7 69.51,-12.1 z m -167.78,283.4 c -20.94,-22.6 -52.46,-33.8 -94.55,-33.8 l -131.81,0.2 0.37,240.2 131.82,-0.2 c 42.08,-0.1 73.57,-11.7 94.43,-34.7 20.86,-23.1 31.27,-51.8 31.24,-86.2 -0.06,-34.5 -10.56,-62.9 -31.5,-85.5 z m 60.5,221.1 c -36.78,34.2 -88.3,51.3 -154.57,51.4 l -215.86,0.3 -69.52,0.1 -0.09,-54.1 69.5,-12.1 -0.75,-489.3 -69.54,-11.8 -0.1,-53.8 223.11,-0.3 0.09,53.7 -69.51,12.1 0.28,183.4 131.81,-0.2 c 66.26,-0.1 117.84,16.7 154.74,50.5 36.86,33.8 55.34,78.9 55.43,135.2 0.09,55.7 -18.26,100.7 -55.02,134.9"
           style="fill:#100f0d;fill-opacity:1;fill-rule:nonzero;stroke:none"
           id="path1801"
           inkscape:connector-curvature="0" /></g><path
         d="m 5061.49,1963.1 h 177.5 v -450 h -790.12 l -426.24,367.8 -52.27,-60.5 448.76,-387.3 h 899.87 v 530 h 162.5 v 80 h -420 z m -864.53,706.1 -185.66,193.9 185.66,194 c 41.94,-53.6 67.03,-120.9 67.03,-194 0,-73.1 -25.09,-140.4 -67.03,-193.9 z m -247.97,-121.1 c -68.19,0 -131.34,21.9 -182.96,58.9 l 182.96,191.1 182.97,-191.1 c -51.62,-37 -114.77,-58.9 -182.97,-58.9 z m -315,315 c 0,73.1 25.1,140.4 67.04,194 l 185.66,-194 -185.66,-193.9 c -41.94,53.5 -67.04,120.8 -67.04,193.9 z m 315,315 c 68.2,0 131.35,-21.8 182.97,-58.8 l -182.97,-191.1 -182.96,191.1 c 51.62,37 114.77,58.8 182.96,58.8 z m 1370,-910 v 605 h -965.25 c -5.34,218.7 -184.78,395 -404.75,395 -219.96,0 -399.4,-176.3 -404.74,-395 h -635.26 v -1440 h 1010 v 80 h -930 v 1280 h 561.19 c 33.27,-190 199.38,-335 398.81,-335 199.44,0 365.55,145 398.82,335 h 891.18 v -525 h -337.5 v -80 h 740 v 80 z m -3080.48,-274.9 77.69,-0.1 6.55,76.8 148.97,-0.3 -0.81,-527.3 -74.97,-12.8 -0.09,-57.9 240.45,-0.4 0.09,58 -74.91,12.9 0.81,527.4 148.5,-0.2 6.78,-76.8 77.24,-0.2 0.24,148.1 -556.31,0.8 z m 394.9,266.2 -74.91,13 0.81,527.3 74.96,12.8 0.1,58.3 -240.45,0.4 -0.1,-58.4 74.91,-13 -0.81,-527.3 -74.96,-12.8 -0.09,-57.9 240.45,-0.4 z m 2269.96,1008.9 c 0.13,77.6 17.92,141 53.4,190.3 35.48,49.3 84.77,73.9 147.92,73.8 65.9,-0.1 117.43,-24.8 154.6,-74.1 37.17,-49.2 55.69,-112.8 55.56,-190.6 l -0.01,-10.6 c -0.12,-78.8 -18.62,-142.6 -55.47,-191.6 -36.86,-49 -88.7,-73.4 -155.51,-73.3 -63.15,0.1 -112.38,24.7 -147.71,74 -35.32,49.2 -52.92,113.1 -52.79,191.6 z m -90.59,-10.4 c -0.15,-97.5 26.69,-178.4 80.54,-242.9 53.85,-64.4 123.98,-96.7 210.42,-96.9 88.89,-0.1 161.35,32 217.38,96.3 56.04,64.2 84.13,145.1 84.29,242.6 l 0.01,9.6 c 0.16,97.2 -27.7,178.2 -83.53,242.9 -55.84,64.8 -128.2,97.2 -217.09,97.4 -86.43,0.1 -156.67,-32.1 -210.71,-96.7 -54.05,-64.6 -81.14,-145.5 -81.3,-242.6 z m -469.84,269.2 148.96,-0.2 -0.81,-527.3 -74.96,-12.8 -0.09,-57.9 240.44,-0.4 0.1,57.9 -74.91,13 0.81,527.4 148.5,-0.3 6.77,-76.8 77.25,-0.1 0.23,148.1 -556.3,0.8 -0.24,-148 77.7,-0.1 z m -1267.4,1.7 128.27,-0.2 c 46.28,0 80.45,-10.4 102.48,-30.9 22.04,-20.6 33.03,-48.5 32.97,-83.7 -0.06,-37.1 -11.59,-65.3 -34.6,-84.6 -23.02,-19.3 -59.83,-28.9 -110.39,-28.8 l -119.08,0.2 z m -91.39,-527.2 -74.95,-12.7 -0.1,-57.9 240.45,-0.4 0.1,57.9 -74.92,13 0.35,228 145.28,-0.2 c 35.56,0 63.89,-11.1 85,-33.2 21.11,-22.1 31.64,-51.4 31.59,-87.9 l -0.08,-51.9 c -0.05,-35 7.33,-64.7 22.15,-89.3 14.83,-24.5 39.87,-36.8 75.12,-36.9 h 48.73 l 0.1,59.3 -22.07,2.8 c -11.95,1.8 -20.53,7.7 -25.71,17.5 -5.21,9.8 -7.78,25 -7.75,45.5 l 0.09,53.8 c 0.06,39.5 -7.94,72.8 -23.99,99.8 -16.05,27 -42.3,46.5 -78.75,58.5 33.73,14.4 59.65,34.1 77.78,59.2 18.12,25.1 27.22,53.9 27.26,86.4 0.09,59.5 -19.3,105.4 -58.17,137.8 -38.88,32.4 -94.8,48.6 -167.74,48.7 l -218.85,0.4 -74.93,0.1 -0.09,-57.9 74.91,-13 z M 2803.32,3307 c -22.56,-24.3 -56.53,-36.4 -101.89,-36.4 l -142.06,0.3 0.4,258.8 142.06,-0.2 c 45.36,-0.1 79.29,-12.6 101.77,-37.4 22.49,-24.9 33.71,-55.9 33.67,-92.9 -0.06,-37.1 -11.38,-67.8 -33.95,-92.2 z m 65.21,238.3 c -39.64,36.9 -95.17,55.3 -166.59,55.4 l -232.63,0.4 -74.93,0.1 -0.1,-58.4 74.91,-13 -0.81,-527.3 -74.95,-12.8 -0.1,-57.9 240.45,-0.4 0.1,58 -74.92,13 0.3,197.7 142.06,-0.3 c 71.41,-0.1 127,18.1 166.76,54.5 39.73,36.4 59.65,84.9 59.75,145.6 0.09,60.1 -19.68,108.6 -59.3,145.4"
         style="fill:#ffffff;fill-opacity:1;fill-rule:nonzero;stroke:none"
         id="path1803"
         inkscape:connector-curvature="0" /></g></g></svg>