<?xml version="1.0" encoding="UTF-8" standalone="no"?>
<!-- Created with Inkscape (http://www.inkscape.org/) -->

<svg
   xmlns:dc="http://purl.org/dc/elements/1.1/"
   xmlns:cc="http://creativecommons.org/ns#"
   xmlns:rdf="http://www.w3.org/1999/02/22-rdf-syntax-ns#"
   xmlns:svg="http://www.w3.org/2000/svg"
   xmlns="http://www.w3.org/2000/svg"
   xmlns:sodipodi="http://sodipodi.sourceforge.net/DTD/sodipodi-0.dtd"
   xmlns:inkscape="http://www.inkscape.org/namespaces/inkscape"
   version="1.1"
   id="svg834"
   xml:space="preserve"
   width="576"
   height="576"
   viewBox="0 0 576 576"
   sodipodi:docname="dickbutt.svg"
   inkscape:version="0.92.4 5da689c313, 2019-01-14"><metadata
     id="metadata840"><rdf:RDF><cc:Work
         rdf:about=""><dc:format>image/svg+xml</dc:format><dc:type
           rdf:resource="http://purl.org/dc/dcmitype/StillImage" /><dc:title></dc:title></cc:Work></rdf:RDF></metadata><defs
     id="defs838" /><sodipodi:namedview
     pagecolor="#ffffff"
     bordercolor="#666666"
     borderopacity="1"
     objecttolerance="10"
     gridtolerance="10"
     guidetolerance="10"
     inkscape:pageopacity="0"
     inkscape:pageshadow="2"
     inkscape:window-width="946"
     inkscape:window-height="1154"
     id="namedview836"
     showgrid="false"
     inkscape:zoom="0.68055556"
     inkscape:cx="288"
     inkscape:cy="288"
     inkscape:window-x="962"
     inkscape:window-y="36"
     inkscape:window-maximized="0"
     inkscape:current-layer="g842" /><g
     id="g842"
     inkscape:groupmode="layer"
     inkscape:label="ink_ext_XXXXXX"
     transform="matrix(1.3333333,0,0,-1.3333333,0,576)"><g
       id="g844"
       transform="scale(0.1)"><path
         d="M 0,4320 H 4320 V 0 H 0 v 4320"
         style="fill:#ffffff;fill-opacity:1;fill-rule:evenodd;stroke:none"
         id="path846"
         inkscape:connector-curvature="0" /><path
         d="m 2664.53,1225.3 c 6.31,44.61 56,45.91 85.6,19.13 -4,-42.16 -58.59,-46.95 -85.6,-19.13 z m -91.9,195.8 c 24.34,37.5 86.81,21.97 92.48,-20.01 -27.3,-30.91 -82.02,-21.85 -92.48,20.01 z m 74.85,140.56 c 20.23,22.87 62.15,18.11 60.06,-14.35 -12.78,-13.25 -12.08,-15.54 -34.31,-11.6 -25.71,4.54 -20.81,16.47 -25.75,25.95 z m 34.79,145.41 c -21.12,57.38 45.8,91.18 67.97,31.52 -14.8,-25.32 -36.78,-37.86 -67.97,-31.52 z m -340.43,340.31 c 25.2,14.2 87.82,15.6 76.04,-27.6 -25.47,-14.35 -80.94,-12.47 -76.04,27.6 z m -671.24,442.5 c 111.19,30.43 89.27,-173.22 87.08,-236.3 -0.96,-27.97 3.77,-44.4 0.53,-74.15 -10.16,-92.95 -21.15,-51.12 -5.88,-163.34 4.36,-32.01 2.33,-57.45 4.16,-89.56 3.27,-56.94 19.77,-108.59 8.9,-165.53 -9.71,-50.82 -200.28,-186.86 -95.25,-218.54 80.09,-24.16 28.11,76.91 99.83,89.74 32.8,-33.7 23.97,-90.9 76.74,-72.86 40.59,51.86 -16.39,47.67 -9.59,104.36 82.6,66.19 146.72,-112.3 205.53,-6.23 -15.36,43.6 -40.38,45.48 -81.27,57.85 -91.9,27.8 -143.08,57.83 -134.51,140.72 6.94,67.19 -13.78,141.11 3.27,245.2 15.36,93.74 -3.38,49.29 -8.94,115.42 -2.41,28.62 6.16,86.25 4.37,117.26 -2.18,37.71 -18.76,90.49 -9.35,125.94 11.65,43.88 48.77,60.09 80.44,18.71 29.46,-38.5 12.75,-82.64 17.05,-132.48 5.66,-65.66 9.05,-295.41 6.19,-373.52 -0.68,-18.7 -9.35,-123.69 -9,-126.31 9.92,-72.24 115.01,-73.94 168.1,-122.17 36.14,-32.84 155.42,-116.2 46.78,-153.28 -34.62,-11.82 -96.05,-11.22 -132.28,-8.39 -109.52,8.56 -35.98,-125.8 -156.35,-121.53 -61.76,2.19 -43.18,53.31 -111.32,31.44 -43.17,-13.85 -63.05,-29.75 -104.95,2.42 -127.69,98.06 14.46,224.66 50.12,280.52 42.95,67.27 -8.2,160.14 3.78,245.49 9.53,67.95 10.15,48.39 2.02,114.73 -6.13,50.13 13.15,88.76 6.6,128.45 -9.92,60.09 -13.96,68.61 -5.39,130.77 6.91,50.13 -30.31,59.18 -7.41,115.17 z m 28.93,969.71 c 135.54,24.2 271.49,-115.27 247.35,-249.19 -28.52,-158.29 -198.67,-183.7 -318.17,-193.85 -145.94,-12.39 -277.25,143.44 -239.35,239.93 17.82,45.4 77.25,109.36 114.84,141.48 39.91,34.09 142.41,52.19 195.33,61.63 z M 1138.9,3285.05 c 31.4,5.22 47.39,20.32 77.91,30.17 32.86,10.6 57.71,-11.34 36.12,-41.87 -4.22,-5.96 -46.54,-28.53 -60.81,-41.69 -56.37,-52 -155.05,-114.76 -137.68,-178.43 15.01,-54.98 118.97,-47.96 162.21,-34.71 2.27,52.44 -50.79,33.37 -28.48,81.18 46.03,48.65 120.87,-14.13 136.87,-61.4 16.64,-49.15 -91.24,-106 -101.95,-107.37 -63.12,-8.09 -141.11,-3.35 -196.15,25.28 -79.96,41.6 -52.651,91.52 -46.276,155.57 -46.105,-6.37 10.496,-11.73 -93.887,-13.06 -156.211,-2 -144.57,38.96 -173.714,-163.53 -15.036,-104.45 73.292,-54.02 130.437,-42.79 30.281,5.95 65.418,-5.65 97.094,-6.44 36.66,-0.91 77.896,0.52 114.586,1.27 100.21,2.01 201.01,24.83 310.03,25.52 l 197.9,21.8 c 50.5,13.11 57.35,6.34 103.61,11.93 54.28,6.56 137.83,42.45 192.38,39.21 43.97,-39.78 38.6,-78.99 -25.04,-92.82 -13.83,-3.01 -85.52,-5.87 -160.3,-21.4 -24.79,-5.15 -46.45,-12.63 -70.12,-18.12 -31.36,-7.29 -59.12,-2.28 -88.57,-6.93 -25.5,-4.02 -39.47,-13.19 -69.39,-14.36 -31.78,-1.23 -61.89,0.33 -94.33,-1.97 -30.15,-2.14 -51.86,-10.45 -80.4,-11.08 -34.8,-0.76 -45.29,10.17 -78.93,1.79 -75.72,-18.84 -259.875,-22.97 -341.813,-13.61 -38.277,4.37 -49.098,-6.74 -84.535,-6.35 -27.524,0.32 -60.102,11.57 -77.656,-14.54 -24.161,-35.91 -2.2,-105.48 1.07,-146.05 4.762,-59.11 -11.867,-86.66 -2.551,-159.66 7.934,-62.14 -18.555,-97.95 -5.316,-159.62 12.312,-57.33 -2.114,-98.91 22.015,-160.53 18.653,-47.64 18.84,-89.01 38.879,-142.48 17.7,-47.24 29.442,-89.98 44.758,-137.24 39.516,-121.9 176.309,-377.03 262.049,-472.45 20.31,-22.59 70.16,-69.66 94.76,-87.07 37.77,-26.75 60.12,-55.82 98.09,-83.82 43.24,-31.9 196.53,-94.04 251.84,-111.77 46,-14.76 103.68,-19.23 149.8,-33.29 221.18,-67.37 152.02,-29.01 231.36,-46.12 28.7,-6.19 41.57,-12.95 75.9,-17.84 74.23,-10.58 93.85,-7.86 166.19,5.29 51.34,9.33 103.8,17.53 154.8,27.49 118.76,23.18 111.79,7.44 108.55,-219.308 -0.75,-51.91 19.53,-130.898 -29.5,-150.781 -79.71,-32.332 -212.19,140.293 -247.96,94.168 -18.64,-65.414 55.75,-115.328 99.48,-150.731 94.61,-76.578 47.06,-42.394 152.4,-110.418 118.65,-76.629 114.96,22.852 123.83,81.95 13.25,88.414 -18.25,86.207 4.74,243.82 20.27,138.969 -65.43,292.73 96.52,249.5 30.96,-8.27 92.76,-8.27 126.27,-7.82 177.53,2.32 307.24,101.48 433.87,212.48 28.03,24.57 151.19,181.55 163.44,227.35 35.89,134.21 -3.82,286.33 -119.54,367.68 -82.72,58.15 -331.61,118.87 -403.91,115.51 -68.13,-3.18 -233.89,-44.37 -291.9,-98.92 -32.24,-30.31 -38.87,-55.67 -90.3,-41.44 -21.63,89.34 89.18,96.11 126.19,139.92 5.09,61.85 -48.28,42.98 -61.16,101.9 58.59,52.12 89.32,-33.25 203.02,-31.24 184.2,3.26 272.2,173.53 7.35,155.28 -149.8,-10.32 -39.23,9.01 -202.02,-25.29 -35.81,-7.55 -130.19,-50.34 -156.27,-71.85 -108.32,-89.35 -37.56,-112.54 -63.45,-166.31 -44.86,-14.03 -58.67,11.7 -66.98,53.79 -7.51,38.03 -21.61,66.6 -27.21,101.98 -12.6,79.59 -15.69,139.1 -35.79,219.65 -35.95,144.1 -74.94,506.74 -50.2,667.44 29.46,191.34 0.97,144.55 2.54,227.66 1.89,100.37 36.23,107.05 6.24,223.07 -19.35,74.85 -30.69,115.99 -75.94,180.12 -76.37,108.25 -163.69,209.74 -309.01,203.89 -79.73,-3.21 -142.85,28.9 -229.83,13.52 -100.93,-17.83 -102.29,-9.4 -196.15,-59.12 -111.19,-58.91 -200.89,-134.75 -285.175,-227.14 -79.239,-86.88 16.255,-89.92 67.425,-129.15 51.14,-39.19 74.56,-107.6 87.67,-167.25"
         style="fill:#ffffff;fill-opacity:1;fill-rule:evenodd;stroke:none"
         id="path848"
         inkscape:connector-curvature="0" /><path
         d="m 1568.61,949.645 c -11.87,-43.997 -28.26,-71.68 -34.23,-115.047 -6.23,-45.282 -28.29,-66.231 -38.35,-110.075 -11.97,-52.121 -57.4,-164.914 -87.3,-209.164 -79.24,-117.296 -106.23,-34.086 -171.97,9.512 -35,23.215 -138.88,117.063 -149.37,156.336 -13.55,50.777 20.68,74.203 65.87,36.387 215.69,-180.485 201.16,-242.254 309.86,140.949 12.3,43.344 20.03,65.629 42.01,106.023 29.51,54.244 80.95,49.894 63.48,-14.921 z m 2019.68,756.525 c -25.31,-0.34 -26.24,7.27 -52.11,8.24 -18.29,0.69 -36.35,-3.3 -55.3,-2.21 -7.7,0.44 -85.72,26.05 -91.29,29.07 -34.61,18.73 -65.41,121.76 -93.02,149.18 -263.95,262.12 -495.37,111.41 -355.14,292.69 35.43,45.81 80.07,88.81 102.13,140.5 11.12,26.06 28.94,52.42 43.23,77.91 26.74,47.72 19.84,32.35 37.32,84.92 7.34,22.09 29.85,53.95 41.19,78.81 35.47,77.73 63.49,236.01 111.85,259.05 105.52,50.25 242.33,-112.49 202.94,-230.19 -23.41,-69.97 -11.02,-124.97 -46.08,-195.4 -37.1,-74.54 -13.12,-88.26 -89.47,-153.98 -11.72,-10.1 -117.85,-117.39 -120.23,-122.63 -30.99,-68.39 102.33,-92.11 142.58,-75.44 68.57,28.39 95.98,70.22 178.23,33.9 -7.83,-41.35 -17.8,-79.33 -9.78,-120.11 -85.17,-11.94 -92.73,82.34 -160.66,25.66 -18.24,-80.96 131.55,-109.07 192.05,-117.1 37.68,-5.01 89.36,-11.12 100.32,-53.46 20.08,-77.63 -59.51,-48.39 -76.17,-52.26 -10.11,-31.47 -0.13,-26.71 -2.59,-57.15 z M 811.121,3179.92 c 17.199,31.3 36.192,6.7 83.461,45.98 98.938,82.22 61.84,152.21 83.231,164.32 35.997,20.38 180.987,-113.13 22.627,-189.59 C 953.582,3178 885.332,3125.97 811.121,3179.92 Z M 2116.86,1033.65 c -72.34,-13.15 -91.96,-15.87 -166.19,-5.29 -34.33,4.89 -47.2,11.65 -75.9,17.84 -79.34,17.11 -10.18,-21.25 -231.36,46.12 -46.12,14.06 -103.8,18.53 -149.8,33.29 -55.31,17.73 -208.6,79.87 -251.84,111.77 -37.97,28 -60.32,57.07 -98.09,83.82 -24.6,17.41 -74.45,64.48 -94.76,87.07 -85.74,95.42 -222.533,350.55 -262.049,472.45 -15.316,47.26 -27.058,90 -44.758,137.24 -98.258,262.24 -33.64,381.56 -53.027,622.29 -3.27,40.57 -25.231,110.14 -1.07,146.05 17.554,26.11 50.132,14.86 77.656,14.54 35.437,-0.39 46.258,10.72 84.535,6.35 81.938,-9.36 266.093,-5.23 341.813,13.61 33.64,8.38 44.13,-2.55 78.93,-1.79 28.54,0.63 50.25,8.94 80.4,11.08 32.44,2.3 62.55,0.74 94.33,1.97 29.92,1.17 43.89,10.34 69.39,14.36 29.45,4.65 57.21,-0.36 88.57,6.93 23.67,5.49 45.33,12.97 70.12,18.12 74.78,15.53 146.47,18.39 160.3,21.4 63.64,13.83 69.01,53.04 25.04,92.82 -54.55,3.24 -138.1,-32.65 -192.38,-39.21 -46.26,-5.59 -53.11,1.18 -103.61,-11.93 l -197.9,-21.8 c -109.02,-0.69 -209.82,-23.51 -310.03,-25.52 -36.69,-0.75 -77.926,-2.18 -114.586,-1.27 -31.676,0.79 -66.813,12.39 -97.094,6.44 -57.145,-11.23 -145.473,-61.66 -130.437,42.79 29.144,202.49 17.503,161.53 173.714,163.53 104.383,1.33 47.782,6.69 93.887,13.06 -6.375,-64.05 -33.684,-113.97 46.276,-155.57 55.04,-28.63 133.03,-33.37 196.15,-25.28 10.71,1.37 118.59,58.22 101.95,107.37 -16,47.27 -90.84,110.05 -136.87,61.4 -22.31,-47.81 30.75,-28.74 28.48,-81.18 -43.24,-13.25 -147.2,-20.27 -162.21,34.71 -17.37,63.67 81.31,126.43 137.68,178.43 14.27,13.16 56.59,35.73 60.81,41.69 21.59,30.53 -3.26,52.47 -36.12,41.87 -30.52,-9.85 -46.51,-24.95 -77.91,-30.17 -13.11,59.65 -36.53,128.06 -87.67,167.25 -51.17,39.23 -146.664,42.27 -67.425,129.15 84.285,92.39 173.985,168.23 285.175,227.14 93.86,49.72 95.22,41.29 196.15,59.12 86.98,15.38 150.1,-16.73 229.83,-13.52 145.32,5.85 232.64,-95.64 309.01,-203.89 45.25,-64.13 56.59,-105.27 75.94,-180.12 60.25,-233.06 -57.84,-720.35 41.42,-1118.17 20.1,-80.55 23.19,-140.06 35.79,-219.65 5.6,-35.38 19.7,-63.95 27.21,-101.98 8.31,-42.09 22.12,-67.82 66.98,-53.79 25.89,53.77 -44.87,76.96 63.45,166.31 26.08,21.51 120.46,64.3 156.27,71.85 162.79,34.3 52.22,14.97 202.02,25.29 264.85,18.25 176.85,-152.02 -7.35,-155.28 -113.7,-2.01 -144.43,83.36 -203.02,31.24 12.88,-58.92 66.25,-40.05 61.16,-101.9 -37.01,-43.81 -147.82,-50.58 -126.19,-139.92 51.43,-14.23 58.06,11.13 90.3,41.44 58.01,54.55 223.77,95.74 291.9,98.92 72.3,3.36 321.19,-57.36 403.91,-115.51 115.72,-81.35 155.43,-233.47 119.54,-367.68 -12.25,-45.8 -135.41,-202.78 -163.44,-227.35 -126.63,-111 -256.34,-210.16 -433.87,-212.48 -33.51,-0.45 -95.31,-0.45 -126.27,7.82 -161.95,43.23 -76.25,-110.531 -96.52,-249.5 -22.99,-157.613 8.51,-155.406 -4.74,-243.82 -8.87,-59.098 -5.18,-158.579 -123.83,-81.95 -105.34,68.024 -57.79,33.84 -152.4,110.418 -43.73,35.403 -118.12,85.317 -99.48,150.731 35.77,46.125 168.25,-126.5 247.96,-94.168 49.03,19.883 28.75,98.871 29.5,150.781 3.24,226.748 10.21,242.488 -108.55,219.308 -51,-9.96 -103.46,-18.16 -154.8,-27.49 z m 1283.82,1116.14 c -6.47,37.08 56.57,85.13 71.01,123.51 16.72,44.42 37.01,105.04 50.63,150.63 37.72,126.19 70.01,201.3 11.48,331 -41.71,92.45 -142.03,169.57 -245.08,161.58 -139.43,-10.81 -142.45,-118.34 -179.77,-227.24 -17.72,-51.7 -46.81,-91.97 -67.44,-141.47 -19.75,-47.41 -32.28,-101.97 -55.43,-146.67 -95.37,-184.12 -120.78,-71.75 -257.9,-78.84 -110.19,-5.68 -252.56,-7.15 -352.04,-57.53 -35.38,-17.92 -95.98,-71.94 -127.37,-22.72 -15.86,24.86 -28.12,124.37 -39.84,164.57 -52.52,180.09 -47.07,365.35 -47.46,544.75 -0.15,69.43 13.67,119.63 15.48,182.29 1.94,67.3 -3,111.62 2.55,183.61 16.11,208.97 -146.12,553.56 -399.98,613.93 -94.32,22.42 -271.49,39.13 -365.3,21.32 -181.13,-34.39 -376.57,-182.85 -496.74,-318.23 -74.14,-83.52 -105.121,-146.43 -201.933,-209.1 -151.207,-97.88 -80.531,-247.78 -76.258,-289.63 4.531,-44.37 -22.82,-117.98 -26.301,-173.68 -4.133,-66.13 -10.066,-116.69 -20.781,-181.92 -36.922,-224.81 6.805,-514.37 52.961,-731.11 55.043,-258.49 231.992,-621 424.792,-794.7 92.75,-83.54 144.41,-103.59 247.26,-163.49 149.76,-87.23 137.25,-48.77 60.76,-221.685 -11.78,-26.656 -45.45,-146.996 -53.96,-154.906 -36.09,-33.536 -88.81,39.363 -125.29,62.683 -85.93,54.922 -275.449,86.903 -213.003,-78.652 16.963,-44.981 50.823,-91.11 76.103,-132.574 12.19,-19.981 273.71,-290.469 367.17,-178.43 49.9,59.816 48.13,55.074 81.34,128.047 23.47,51.562 27.8,93.008 55.96,145.359 31.92,59.332 42.55,72.367 62.26,139.461 70.06,238.427 -46.63,146.766 376.64,131.867 191.1,-6.726 256.4,90.79 286.21,0.27 12.42,-37.727 4.83,-130.621 -57.23,-110.496 -22.14,7.176 -40.83,23.254 -63.23,31.648 -42.23,15.832 -182.64,39.699 -197.72,-40.519 -7.71,-40.981 33.02,-89.985 55.53,-122.504 52.77,-76.231 107.22,-135.395 190.53,-180.121 60.01,-32.223 186.53,-119.25 250.4,-114.172 150.2,11.941 77.43,266.879 99.98,426.121 4.65,32.797 11.41,141.226 23.06,160.043 24.29,15.84 118.23,6.617 167.16,15.762 49.27,9.208 97.83,16.038 145.6,35.068 36.14,14.4 88.77,40.92 121.15,60.77 125.59,77.01 193.66,162.63 277.05,268.98 29.67,37.83 47.4,70.66 71.77,110.3 38.83,63.15 -15.28,89.94 44.24,138.55 36.53,-0.67 39.43,4.55 64.74,1.11 51.4,-1.35 81.08,-7.74 126.35,3.1 84.67,37.6 141.69,76.74 129.08,181.49 -35.07,153.22 -116.47,102.63 -130.83,124.71 -6.91,10.66 33.75,33.61 57.92,122.98 -0.44,49.8 -16.84,61.03 -45.74,103.2 -122.56,100.82 -161.11,-32.61 -220.54,1.68"
         style="fill:#231f20;fill-opacity:1;fill-rule:evenodd;stroke:none"
         id="path850"
         inkscape:connector-curvature="0" /><path
         d="m 3345.09,2337.46 c 6.48,-68.51 -57.14,-58.63 -68.83,-29.27 -16.39,41.17 24.18,64.78 68.83,29.27 z m 25.63,92 c -18.72,35.39 7.24,58.75 39.43,53.22 23.83,-36.93 3.56,-73.04 -39.43,-53.22 z m 217.57,-723.29 c 38.4,12.64 108.52,2.77 78.76,109.41 -10.96,42.34 -62.64,48.45 -100.32,53.46 -60.5,8.03 -210.29,36.14 -192.05,117.1 67.93,56.68 75.49,-37.6 160.66,-25.66 66.5,26.39 87.42,62.4 9.78,120.11 -82.25,36.32 -109.66,-5.51 -178.23,-33.9 -40.25,-16.67 -173.57,7.05 -142.58,75.44 2.38,5.24 108.51,112.53 120.23,122.63 76.35,65.72 52.37,79.44 89.47,153.98 35.06,70.43 22.67,125.43 46.08,195.4 39.39,117.7 -97.42,280.44 -202.94,230.19 -48.36,-23.04 -76.38,-181.32 -111.85,-259.05 -11.34,-24.86 -33.85,-56.72 -41.19,-78.81 -17.48,-52.57 -10.58,-37.2 -37.32,-84.92 -14.29,-25.49 -32.11,-51.85 -43.23,-77.91 -22.06,-51.69 -66.7,-94.69 -102.13,-140.5 -140.23,-181.28 91.19,-30.57 355.14,-292.69 27.61,-27.42 58.41,-130.45 93.02,-149.18 5.57,-3.02 83.59,-28.63 91.29,-29.07 18.95,-1.09 37.01,2.9 55.3,2.21 25.87,-0.97 26.8,-8.58 52.11,-8.24"
         style="fill:#ffffff;fill-opacity:1;fill-rule:evenodd;stroke:none"
         id="path852"
         inkscape:connector-curvature="0" /><path
         d="m 1670.6,2489.88 c -22.9,-55.99 14.32,-65.04 7.41,-115.17 -15.03,-108.99 24.7,-569.78 -7.01,-619.44 -35.66,-55.86 -177.81,-182.46 -50.12,-280.52 41.9,-32.17 61.78,-16.27 104.95,-2.42 68.14,21.87 49.56,-29.25 111.32,-31.44 120.37,-4.27 46.83,130.09 156.35,121.53 36.23,-2.83 97.66,-3.43 132.28,8.39 108.64,37.08 -10.64,120.44 -46.78,153.28 -53.09,48.23 -158.18,49.93 -168.1,122.17 -0.35,2.62 8.32,107.61 9,126.31 2.86,78.11 -0.53,307.86 -6.19,373.52 -4.3,49.84 12.41,93.98 -17.05,132.48 -31.67,41.38 -68.79,25.17 -80.44,-18.71 -9.41,-35.45 7.17,-88.23 9.35,-125.94 7.38,-127.78 13.2,-362.79 1.3,-477.88 -8.57,-82.89 42.61,-112.92 134.51,-140.72 40.89,-12.37 65.91,-14.25 81.27,-57.85 -58.81,-106.07 -122.93,72.42 -205.53,6.23 -6.8,-56.69 50.18,-52.5 9.59,-104.36 -52.77,-18.04 -43.94,39.16 -76.74,72.86 -71.72,-12.83 -19.74,-113.9 -99.83,-89.74 -105.03,31.68 85.54,167.72 95.25,218.54 10.87,56.94 -5.63,108.59 -8.9,165.53 -7.07,123.51 -2.97,206.51 1.19,327.05 2.19,63.08 24.11,266.73 -87.08,236.3"
         style="fill:#231f20;fill-opacity:1;fill-rule:evenodd;stroke:none"
         id="path854"
         inkscape:connector-curvature="0" /><path
         d="m 1498.05,3145.8 c 25.9,15.15 81.46,11.61 114.81,11.49 54.37,-0.2 44.94,10.07 76.07,48.82 20.06,24.97 51.05,47.5 65.05,76.6 15.32,31.81 17.69,69.81 40.29,96.14 29.36,-2.55 48.61,-23.33 65.58,-48.21 16.56,-24.28 34.3,-44.36 30.98,-75.76 -12.31,-116.48 -153.26,-155.84 -256.8,-175.78 -48.14,-9.27 -113.74,22.15 -135.98,66.7 z m 201.48,313.79 c -52.92,-9.44 -155.42,-27.54 -195.33,-61.63 -37.59,-32.12 -97.02,-96.08 -114.84,-141.48 -37.9,-96.49 93.41,-252.32 239.35,-239.93 119.5,10.15 289.65,35.56 318.17,193.85 24.14,133.92 -111.81,273.39 -247.35,249.19"
         style="fill:#231f20;fill-opacity:1;fill-rule:evenodd;stroke:none"
         id="path856"
         inkscape:connector-curvature="0" /><path
         d="m 1568.61,949.645 c 17.47,64.815 -33.97,69.165 -63.48,14.921 -21.98,-40.394 -29.71,-62.679 -42.01,-106.023 -108.7,-383.203 -94.17,-321.434 -309.86,-140.949 -45.19,37.816 -79.42,14.39 -65.87,-36.387 10.49,-39.273 114.37,-133.121 149.37,-156.336 65.74,-43.598 92.73,-126.808 171.97,-9.512 29.9,44.25 75.33,157.043 87.3,209.164 10.06,43.844 32.12,64.793 38.35,110.075 5.97,43.367 22.36,71.05 34.23,115.047"
         style="fill:#ffffff;fill-opacity:1;fill-rule:evenodd;stroke:none"
         id="path858"
         inkscape:connector-curvature="0" /><path
         d="m 1498.05,3145.8 c 22.24,-44.55 87.84,-75.97 135.98,-66.7 103.54,19.94 244.49,59.3 256.8,175.78 3.32,31.4 -14.42,51.48 -30.98,75.76 -16.97,24.88 -36.22,45.66 -65.58,48.21 -22.6,-26.33 -24.97,-64.33 -40.29,-96.14 -14,-29.1 -44.99,-51.63 -65.05,-76.6 -31.13,-38.75 -21.7,-49.02 -76.07,-48.82 -33.35,0.12 -88.91,3.66 -114.81,-11.49"
         style="fill:#ffffff;fill-opacity:1;fill-rule:evenodd;stroke:none"
         id="path860"
         inkscape:connector-curvature="0" /><path
         d="m 811.121,3179.92 c 74.211,-53.95 142.461,-1.92 189.319,20.71 158.36,76.46 13.37,209.97 -22.627,189.59 -21.391,-12.11 15.707,-82.1 -83.231,-164.32 -47.269,-39.28 -66.262,-14.68 -83.461,-45.98"
         style="fill:#ffffff;fill-opacity:1;fill-rule:evenodd;stroke:none"
         id="path862"
         inkscape:connector-curvature="0" /><path
         d="m 2572.63,1421.1 c 10.46,-41.86 65.18,-50.92 92.48,-20.01 -5.67,41.98 -68.14,57.51 -92.48,20.01"
         style="fill:#231f20;fill-opacity:1;fill-rule:evenodd;stroke:none"
         id="path864"
         inkscape:connector-curvature="0" /><path
         d="m 3345.09,2337.46 c -44.65,35.51 -85.22,11.9 -68.83,-29.27 11.69,-29.36 75.31,-39.24 68.83,29.27"
         style="fill:#231f20;fill-opacity:1;fill-rule:evenodd;stroke:none"
         id="path866"
         inkscape:connector-curvature="0" /><path
         d="m 2664.53,1225.3 c 27.01,-27.82 81.6,-23.03 85.6,19.13 -29.6,26.78 -79.29,25.48 -85.6,-19.13"
         style="fill:#231f20;fill-opacity:1;fill-rule:evenodd;stroke:none"
         id="path868"
         inkscape:connector-curvature="0" /><path
         d="m 2682.27,1707.07 c 31.19,-6.34 53.17,6.2 67.97,31.52 -22.17,59.66 -89.09,25.86 -67.97,-31.52"
         style="fill:#231f20;fill-opacity:1;fill-rule:evenodd;stroke:none"
         id="path870"
         inkscape:connector-curvature="0" /><path
         d="m 2417.88,2019.78 c 11.78,43.2 -50.84,41.8 -76.04,27.6 -4.9,-40.07 50.57,-41.95 76.04,-27.6"
         style="fill:#231f20;fill-opacity:1;fill-rule:evenodd;stroke:none"
         id="path872"
         inkscape:connector-curvature="0" /><path
         d="m 3370.72,2429.46 c 42.99,-19.82 63.26,16.29 39.43,53.22 -32.19,5.53 -58.15,-17.83 -39.43,-53.22"
         style="fill:#231f20;fill-opacity:1;fill-rule:evenodd;stroke:none"
         id="path874"
         inkscape:connector-curvature="0" /><path
         d="m 2673.23,1535.71 c 22.23,-3.94 21.53,-1.65 34.31,11.6 2.09,32.46 -39.83,37.22 -60.06,14.35 4.94,-9.48 0.04,-21.41 25.75,-25.95"
         style="fill:#231f20;fill-opacity:1;fill-rule:evenodd;stroke:none"
         id="path876"
         inkscape:connector-curvature="0" /></g></g></svg>